<svg xmlns="http://www.w3.org/2000/svg" xmlns:xlink="http://www.w3.org/1999/xlink" width="793.700988769531" height="1122.52001953125" viewBox="0 0 210 297"><g transform="matrix(3188.3093 0 0 2423.9266 -2038.2055 -740.65178)" fill="#95f"><path d="M.64693538197.315441839164L.646931423585.33294922845.639667960645.32418837404zm.0581077.07008696L.705039113585.40303618845.697775650645.39427533404z"/><path d="M.69777849803.333293210836L.697782456415.31578582155l.00726346294.0087608544zm-.00014725.08218865L.697635206415.39797447155l.00726346294.0087608544z"/><use xlink:href="#B"/><path d="M.668725789035.341289864286L.66872182742.358797211215.661458365645.35003637868z"/><use xlink:href="#B" x="0.00726346" y="0.00919501"/><path d="M.675989249035.350484874286L.67598528742.367992221215.668721825645.35923138868z"/><use xlink:href="#B" x="0.01452692" y="0.01839001"/><path d="M.683252709035.359679874286L.68324874742.377187221215.675985285645.36842638868z"/><g transform="matrix(.0008000550899999999 0 0 .0008204098799999999 .59529963 .25732735)"><use xlink:href="#C" x="9.409709" y="10.922874"/><use xlink:href="#D" x="9.409709" y="10.922874"/><use xlink:href="#C" x="9.778717" y="11.351222"/><use xlink:href="#D" x="9.778717" y="11.351222"/><use xlink:href="#C" x="9.870969" y="11.458309"/><use xlink:href="#D" x="9.870969" y="11.458309"/><use xlink:href="#C" x="9.963221" y="11.565396000001"/><use xlink:href="#D" x="9.963221" y="11.565396"/><use xlink:href="#C" x="9.686465" y="11.244135"/><use xlink:href="#D" x="9.686465" y="11.244135"/><use xlink:href="#C" x="9.594213" y="11.137048"/><use xlink:href="#D" x="9.594213" y="11.137048"/><use xlink:href="#C" x="9.501961" y="11.029961"/><use xlink:href="#D" x="9.501961" y="11.029961"/><use xlink:href="#C" x="10.05547332" y="11.672482990001"/><use xlink:href="#D" x="10.05547332" y="11.67248299"/><use xlink:href="#C" x="10.42448132" y="12.100830990001"/><use xlink:href="#D" x="10.42448132" y="12.10083099"/><use xlink:href="#C" x="10.51673332" y="12.20791799"/><use xlink:href="#D" x="10.51673332" y="12.20791799"/><use xlink:href="#C" x="10.60898532" y="12.31500499"/><use xlink:href="#D" x="10.60898532" y="12.31500499"/><use xlink:href="#C" x="10.33222932" y="11.99374399"/><use xlink:href="#D" x="10.33222932" y="11.99374399"/><use xlink:href="#C" x="10.23997732" y="11.88665699"/><use xlink:href="#D" x="10.23997732" y="11.88665699"/><use xlink:href="#C" x="10.14772532" y="11.77956999"/><use xlink:href="#D" x="10.14772532" y="11.77956999"/><use xlink:href="#C" x="10.6089857" y="12.315005"/><use xlink:href="#D" x="10.6089857" y="12.315005"/><use xlink:href="#C" x="10.9779937" y="12.743353"/><use xlink:href="#D" x="10.9779937" y="12.743353"/><use xlink:href="#C" x="11.0702457" y="12.85044"/><use xlink:href="#D" x="11.0702457" y="12.85044"/><use xlink:href="#C" x="11.1624977" y="12.957527"/><use xlink:href="#D" x="11.1624977" y="12.957527"/><use xlink:href="#C" x="10.8857417" y="12.636266"/><use xlink:href="#D" x="10.8857417" y="12.636266"/><use xlink:href="#C" x="10.7934897" y="12.529179000001"/><use xlink:href="#D" x="10.7934897" y="12.529179"/><use xlink:href="#C" x="10.7012377" y="12.422092"/><use xlink:href="#D" x="10.7012377" y="12.422092"/><use xlink:href="#C" x="11.162498" y="12.957527"/><use xlink:href="#D" x="11.162498" y="12.957527"/><use xlink:href="#C" x="11.531506" y="13.385875000001"/><use xlink:href="#D" x="11.531506" y="13.385875"/><use xlink:href="#C" x="11.623758" y="13.492962"/><use xlink:href="#D" x="11.623758" y="13.492962"/><use xlink:href="#C" x="11.71601" y="13.600049"/><use xlink:href="#D" x="11.71601" y="13.600049"/><use xlink:href="#C" x="11.439254" y="13.278788"/><use xlink:href="#D" x="11.439254" y="13.278788"/><use xlink:href="#C" x="11.347002" y="13.171701"/><use xlink:href="#D" x="11.347002" y="13.171701"/><use xlink:href="#C" x="11.25475" y="13.064614"/><use xlink:href="#D" x="11.25475" y="13.064614"/><use xlink:href="#C" x="11.7160103" y="13.600049"/><use xlink:href="#D" x="11.7160103" y="13.600049"/><use xlink:href="#C" x="12.0850183" y="14.028397"/><use xlink:href="#D" x="12.0850183" y="14.028397"/><use xlink:href="#C" x="12.1772703" y="14.135484"/><use xlink:href="#D" x="12.1772703" y="14.135484"/><use xlink:href="#C" x="12.2695223" y="14.242571000001"/><use xlink:href="#D" x="12.2695223" y="14.242571"/><use xlink:href="#C" x="11.9927663" y="13.92131"/><use xlink:href="#D" x="11.9927663" y="13.92131"/><use xlink:href="#C" x="11.9005143" y="13.814223"/><use xlink:href="#D" x="11.9005143" y="13.814223"/><use xlink:href="#C" x="11.8082623" y="13.707136"/><use xlink:href="#D" x="11.8082623" y="13.707136"/><use xlink:href="#C" x="12.36177462" y="14.34965799"/><use xlink:href="#D" x="12.36177462" y="14.34965799"/><use xlink:href="#C" x="12.73078262" y="14.778005990001"/><use xlink:href="#D" x="12.73078262" y="14.77800599"/><use xlink:href="#C" x="12.82303462" y="14.88509299"/><use xlink:href="#D" x="12.82303462" y="14.88509299"/><use xlink:href="#C" x="12.91528662" y="14.99217999"/><use xlink:href="#D" x="12.91528662" y="14.99217999"/><use xlink:href="#C" x="12.63853062" y="14.67091899"/><use xlink:href="#D" x="12.63853062" y="14.67091899"/><use xlink:href="#C" x="12.54627862" y="14.56383199"/><use xlink:href="#D" x="12.54627862" y="14.56383199"/><use xlink:href="#C" x="12.45402662" y="14.45674499"/><use xlink:href="#D" x="12.45402662" y="14.45674499"/><use xlink:href="#C" x="12.915287" y="14.99218"/><use xlink:href="#D" x="12.915287" y="14.99218"/><use xlink:href="#C" x="13.284295" y="15.420528000001"/><use xlink:href="#D" x="13.284295" y="15.420528"/><use xlink:href="#C" x="13.376547" y="15.527615"/><use xlink:href="#D" x="13.376547" y="15.527615"/><use xlink:href="#C" x="13.468799" y="15.634702000001"/><use xlink:href="#D" x="13.468799" y="15.634702"/><use xlink:href="#C" x="13.192043" y="15.313441"/><use xlink:href="#D" x="13.192043" y="15.313441"/><use xlink:href="#C" x="13.099791" y="15.206354"/><use xlink:href="#D" x="13.099791" y="15.206354"/><use xlink:href="#C" x="13.007539" y="15.099267"/><use xlink:href="#D" x="13.007539" y="15.099267"/><use xlink:href="#C" x="13.4687993" y="15.634702"/><use xlink:href="#D" x="13.4687993" y="15.634702"/><use xlink:href="#C" x="13.8378073" y="16.06305"/><use xlink:href="#D" x="13.8378073" y="16.06305"/><use xlink:href="#C" x="13.9300593" y="16.170137"/><use xlink:href="#D" x="13.9300593" y="16.170137"/><use xlink:href="#C" x="14.0223113" y="16.277224000001"/><use xlink:href="#D" x="14.0223113" y="16.277224"/><use xlink:href="#C" x="13.7455553" y="15.955963"/><use xlink:href="#D" x="13.7455553" y="15.955963"/><use xlink:href="#C" x="13.6533033" y="15.848876"/><use xlink:href="#D" x="13.6533033" y="15.848876"/><use xlink:href="#C" x="13.5610513" y="15.741789"/><use xlink:href="#D" x="13.5610513" y="15.741789"/><use xlink:href="#C" x="14.1145636" y="16.384311"/><use xlink:href="#D" x="14.1145636" y="16.384311"/><use xlink:href="#C" x="14.4835716" y="16.812659000001"/><use xlink:href="#D" x="14.4835716" y="16.812659"/><use xlink:href="#C" x="14.5758236" y="16.919746000001"/><use xlink:href="#D" x="14.5758236" y="16.919746"/><use xlink:href="#C" x="14.6680756" y="17.026833"/><use xlink:href="#D" x="14.6680756" y="17.026833"/><use xlink:href="#C" x="14.3913196" y="16.705572"/><use xlink:href="#D" x="14.3913196" y="16.705572"/><use xlink:href="#C" x="14.2990676" y="16.598485"/><use xlink:href="#D" x="14.2990676" y="16.598485"/><use xlink:href="#C" x="14.2068156" y="16.491398"/><use xlink:href="#D" x="14.2068156" y="16.491398"/><use xlink:href="#C" x="14.76032792" y="17.13391999"/><use xlink:href="#D" x="14.76032792" y="17.13391999"/><use xlink:href="#C" x="15.12933592" y="17.562267990001"/><use xlink:href="#D" x="15.12933592" y="17.56226799"/><use xlink:href="#C" x="15.22158792" y="17.669354990001"/><use xlink:href="#D" x="15.22158792" y="17.66935499"/><use xlink:href="#C" x="15.31383992" y="17.776441990001"/><use xlink:href="#D" x="15.31383992" y="17.77644199"/><use xlink:href="#C" x="15.03708392" y="17.45518099"/><use xlink:href="#D" x="15.03708392" y="17.45518099"/><use xlink:href="#C" x="14.94483192" y="17.348093990001"/><use xlink:href="#D" x="14.94483192" y="17.34809399"/><use xlink:href="#C" x="14.85257992" y="17.241006990001"/><use xlink:href="#D" x="14.85257992" y="17.24100699"/><use xlink:href="#C" x="15.3138403" y="17.776442"/><use xlink:href="#D" x="15.3138403" y="17.776442"/><use xlink:href="#C" x="15.6828483" y="18.204790000001"/><use xlink:href="#D" x="15.6828483" y="18.20479"/><use xlink:href="#C" x="15.7751003" y="18.311877"/><use xlink:href="#D" x="15.7751003" y="18.311877"/><use xlink:href="#C" x="15.8673523" y="18.418964000001"/><use xlink:href="#D" x="15.8673523" y="18.418964"/><use xlink:href="#C" x="15.5905963" y="18.097703"/><use xlink:href="#D" x="15.5905963" y="18.097703"/><use xlink:href="#C" x="15.4983443" y="17.990616000001"/><use xlink:href="#D" x="15.4983443" y="17.990616"/><use xlink:href="#C" x="15.4060923" y="17.883529"/><use xlink:href="#D" x="15.4060923" y="17.883529"/><use xlink:href="#C" x="15.8673526" y="18.418964000001"/><use xlink:href="#D" x="15.8673526" y="18.418964"/><use xlink:href="#C" x="16.2363606" y="18.847312000001"/><use xlink:href="#D" x="16.2363606" y="18.847312"/><use xlink:href="#C" x="16.3286126" y="18.954399"/><use xlink:href="#D" x="16.3286126" y="18.954399"/><use xlink:href="#C" x="16.4208646" y="19.061486000001"/><use xlink:href="#D" x="16.4208646" y="19.061486"/><use xlink:href="#C" x="16.1441086" y="18.740225"/><use xlink:href="#D" x="16.1441086" y="18.740225"/><use xlink:href="#C" x="16.0518566" y="18.633138"/><use xlink:href="#D" x="16.0518566" y="18.633138"/><use xlink:href="#C" x="15.9596046" y="18.526051"/><use xlink:href="#D" x="15.9596046" y="18.526051"/><use xlink:href="#C" x="16.4208649" y="19.061486"/><use xlink:href="#D" x="16.4208649" y="19.061486"/><use xlink:href="#C" x="16.7898729" y="19.489834"/><use xlink:href="#D" x="16.7898729" y="19.489834"/><use xlink:href="#C" x="16.8821249" y="19.596921"/><use xlink:href="#D" x="16.8821249" y="19.596921"/><use xlink:href="#C" x="16.9743769" y="19.704008000001"/><use xlink:href="#D" x="16.9743769" y="19.704008"/><use xlink:href="#C" x="16.6976209" y="19.382747"/><use xlink:href="#D" x="16.6976209" y="19.382747"/><use xlink:href="#C" x="16.6053689" y="19.27566"/><use xlink:href="#D" x="16.6053689" y="19.27566"/><use xlink:href="#C" x="16.5131169" y="19.168573"/><use xlink:href="#D" x="16.5131169" y="19.168573"/><use xlink:href="#C" x="17.06662922" y="19.81109499"/><use xlink:href="#D" x="17.06662922" y="19.81109499"/><use xlink:href="#C" x="17.43563722" y="20.23944299"/><use xlink:href="#D" x="17.43563722" y="20.23944299"/><use xlink:href="#C" x="17.52788922" y="20.34652999"/><use xlink:href="#D" x="17.52788922" y="20.34652999"/><use xlink:href="#C" x="17.62014122" y="20.453616990001"/><use xlink:href="#D" x="17.62014122" y="20.45361699"/><use xlink:href="#C" x="17.34338522" y="20.13235599"/><use xlink:href="#D" x="17.34338522" y="20.13235599"/><use xlink:href="#C" x="17.25113322" y="20.02526899"/><use xlink:href="#D" x="17.25113322" y="20.02526899"/><use xlink:href="#C" x="17.15888122" y="19.91818199"/><use xlink:href="#D" x="17.15888122" y="19.91818199"/><use xlink:href="#C" x="17.6201416" y="20.453617"/><use xlink:href="#D" x="17.6201416" y="20.453617"/><use xlink:href="#C" x="17.9891496" y="20.881965"/><use xlink:href="#D" x="17.9891496" y="20.881965"/><use xlink:href="#C" x="18.0814016" y="20.989052"/><use xlink:href="#D" x="18.0814016" y="20.989052"/><use xlink:href="#C" x="18.1736536" y="21.096139000001"/><use xlink:href="#D" x="18.1736536" y="21.096139"/><use xlink:href="#C" x="17.8968976" y="20.774878"/><use xlink:href="#D" x="17.8968976" y="20.774878"/><use xlink:href="#C" x="17.8046456" y="20.667791"/><use xlink:href="#D" x="17.8046456" y="20.667791"/><use xlink:href="#C" x="17.7123936" y="20.560704000001"/><use xlink:href="#D" x="17.7123936" y="20.560704"/><use xlink:href="#C" x="18.1736539" y="21.096139000001"/><use xlink:href="#D" x="18.1736539" y="21.096139"/><use xlink:href="#C" x="18.5426619" y="21.524487000001"/><use xlink:href="#D" x="18.5426619" y="21.524487"/><use xlink:href="#C" x="18.6349139" y="21.631574"/><use xlink:href="#D" x="18.6349139" y="21.631574"/><use xlink:href="#C" x="18.7271659" y="21.738661000001"/><use xlink:href="#D" x="18.7271659" y="21.738661"/><use xlink:href="#C" x="18.4504099" y="21.4174"/><use xlink:href="#D" x="18.4504099" y="21.4174"/><use xlink:href="#C" x="18.3581579" y="21.310313"/><use xlink:href="#D" x="18.3581579" y="21.310313"/><use xlink:href="#C" x="18.2659059" y="21.203226"/><use xlink:href="#D" x="18.2659059" y="21.203226"/><use xlink:href="#C"/><use xlink:href="#D"/><use xlink:href="#C" x="0.369008" y="0.428348"/><use xlink:href="#D" x="0.369008" y="0.428348"/><use xlink:href="#C" x="0.46126" y="0.535435"/><use xlink:href="#D" x="0.46126" y="0.535435"/><use xlink:href="#C" x="0.553512" y="0.642522"/><use xlink:href="#D" x="0.553512" y="0.642522"/><use xlink:href="#C" x="0.276756" y="0.321261"/><use xlink:href="#D" x="0.276756" y="0.321261"/><use xlink:href="#C" x="0.184504" y="0.214174"/><use xlink:href="#D" x="0.184504" y="0.214174"/><use xlink:href="#C" x="0.092252" y="0.107087"/><use xlink:href="#D" x="0.092252" y="0.107087"/><use xlink:href="#C" x="0.64576432" y="0.74960899"/><use xlink:href="#D" x="0.64576432" y="0.74960899"/><use xlink:href="#C" x="1.01477232" y="1.17795699"/><use xlink:href="#D" x="1.01477232" y="1.17795699"/><use xlink:href="#C" x="1.10702432" y="1.28504399"/><use xlink:href="#D" x="1.10702432" y="1.28504399"/><use xlink:href="#C" x="1.19927632" y="1.392130990001"/><use xlink:href="#D" x="1.19927632" y="1.39213099"/><use xlink:href="#C" x="0.92252032" y="1.07086999"/><use xlink:href="#D" x="0.92252032" y="1.07086999"/><use xlink:href="#C" x="0.83026832" y="0.96378299"/><use xlink:href="#D" x="0.83026832" y="0.96378299"/><use xlink:href="#C" x="0.73801632" y="0.85669599"/><use xlink:href="#D" x="0.73801632" y="0.85669599"/><use xlink:href="#C" x="1.1992767" y="1.392131"/><use xlink:href="#D" x="1.1992767" y="1.392131"/><use xlink:href="#C" x="1.5682847" y="1.820479"/><use xlink:href="#D" x="1.5682847" y="1.820479"/><use xlink:href="#C" x="1.6605367" y="1.927566"/><use xlink:href="#D" x="1.6605367" y="1.927566"/><use xlink:href="#C" x="1.7527887" y="2.034653000001"/><use xlink:href="#D" x="1.7527887" y="2.034653"/><use xlink:href="#C" x="1.4760327" y="1.713392"/><use xlink:href="#D" x="1.4760327" y="1.713392"/><use xlink:href="#C" x="1.3837807" y="1.606305"/><use xlink:href="#D" x="1.3837807" y="1.606305"/><use xlink:href="#C" x="1.2915287" y="1.499218"/><use xlink:href="#D" x="1.2915287" y="1.499218"/><use xlink:href="#C" x="1.752789" y="2.034653000001"/><use xlink:href="#D" x="1.752789" y="2.034653"/><use xlink:href="#C" x="2.121797" y="2.463001000001"/><use xlink:href="#D" x="2.121797" y="2.463001"/><use xlink:href="#C" x="2.214049" y="2.570088"/><use xlink:href="#D" x="2.214049" y="2.570088"/><use xlink:href="#C" x="2.306301" y="2.677175"/><use xlink:href="#D" x="2.306301" y="2.677175"/><use xlink:href="#C" x="2.029545" y="2.355914"/><use xlink:href="#D" x="2.029545" y="2.355914"/><use xlink:href="#C" x="1.937293" y="2.248827"/><use xlink:href="#D" x="1.937293" y="2.248827"/><use xlink:href="#C" x="1.845041" y="2.14174"/><use xlink:href="#D" x="1.845041" y="2.14174"/><use xlink:href="#C" x="2.3063013" y="2.677175"/><use xlink:href="#D" x="2.3063013" y="2.677175"/><use xlink:href="#C" x="2.6753093" y="3.105523000001"/><use xlink:href="#D" x="2.6753093" y="3.105523"/><use xlink:href="#C" x="2.7675613" y="3.21261"/><use xlink:href="#D" x="2.7675613" y="3.21261"/><use xlink:href="#C" x="2.8598133" y="3.319697000001"/><use xlink:href="#D" x="2.8598133" y="3.319697"/><use xlink:href="#C" x="2.5830573" y="2.998436"/><use xlink:href="#D" x="2.5830573" y="2.998436"/><use xlink:href="#C" x="2.4908053" y="2.891349000001"/><use xlink:href="#D" x="2.4908053" y="2.891349"/><use xlink:href="#C" x="2.3985533" y="2.784262"/><use xlink:href="#D" x="2.3985533" y="2.784262"/><use xlink:href="#C" x="2.95206562" y="3.426783990001"/><use xlink:href="#D" x="2.95206562" y="3.42678399"/><use xlink:href="#C" x="3.32107362" y="3.855131990001"/><use xlink:href="#D" x="3.32107362" y="3.85513199"/><use xlink:href="#C" x="3.41332562" y="3.96221899"/><use xlink:href="#D" x="3.41332562" y="3.96221899"/><use xlink:href="#C" x="3.50557762" y="4.06930599"/><use xlink:href="#D" x="3.50557762" y="4.06930599"/><use xlink:href="#C" x="3.22882162" y="3.74804499"/><use xlink:href="#D" x="3.22882162" y="3.74804499"/><use xlink:href="#C" x="3.13656962" y="3.64095799"/><use xlink:href="#D" x="3.13656962" y="3.64095799"/><use xlink:href="#C" x="3.04431762" y="3.53387099"/><use xlink:href="#D" x="3.04431762" y="3.53387099"/><use xlink:href="#C" x="3.505578" y="4.069306"/><use xlink:href="#D" x="3.505578" y="4.069306"/><use xlink:href="#C" x="3.874586" y="4.497654"/><use xlink:href="#D" x="3.874586" y="4.497654"/><use xlink:href="#C" x="3.966838" y="4.604741"/><use xlink:href="#D" x="3.966838" y="4.604741"/><use xlink:href="#C" x="4.05909" y="4.711828000001"/><use xlink:href="#D" x="4.05909" y="4.711828"/><use xlink:href="#C" x="3.782334" y="4.390567"/><use xlink:href="#D" x="3.782334" y="4.390567"/><use xlink:href="#C" x="3.690082" y="4.28348"/><use xlink:href="#D" x="3.690082" y="4.28348"/><use xlink:href="#C" x="3.59783" y="4.176393"/><use xlink:href="#D" x="3.59783" y="4.176393"/><use xlink:href="#C" x="4.0590903" y="4.711828"/><use xlink:href="#D" x="4.0590903" y="4.711828"/><use xlink:href="#C" x="4.4280983" y="5.140176000001"/><use xlink:href="#D" x="4.4280983" y="5.140176"/><use xlink:href="#C" x="4.5203503" y="5.247263"/><use xlink:href="#D" x="4.5203503" y="5.247263"/><use xlink:href="#C" x="4.6126023" y="5.35435"/><use xlink:href="#D" x="4.6126023" y="5.35435"/><use xlink:href="#C" x="4.3358463" y="5.033089"/><use xlink:href="#D" x="4.3358463" y="5.033089"/><use xlink:href="#C" x="4.2435943" y="4.926002"/><use xlink:href="#D" x="4.2435943" y="4.926002"/><use xlink:href="#C" x="4.1513423" y="4.818915"/><use xlink:href="#D" x="4.1513423" y="4.818915"/><use xlink:href="#C" x="4.7048546" y="5.461437000001"/><use xlink:href="#D" x="4.7048546" y="5.461437"/><use xlink:href="#C" x="5.0738626" y="5.889785000001"/><use xlink:href="#D" x="5.0738626" y="5.889785"/><use xlink:href="#C" x="5.1661146" y="5.996872"/><use xlink:href="#D" x="5.1661146" y="5.996872"/><use xlink:href="#C" x="5.2583666" y="6.103959"/><use xlink:href="#D" x="5.2583666" y="6.103959"/><use xlink:href="#C" x="4.9816106" y="5.782698"/><use xlink:href="#D" x="4.9816106" y="5.782698"/><use xlink:href="#C" x="4.8893586" y="5.675611"/><use xlink:href="#D" x="4.8893586" y="5.675611"/><use xlink:href="#C" x="4.7971066" y="5.568524"/><use xlink:href="#D" x="4.7971066" y="5.568524"/><use xlink:href="#C" x="5.35061892" y="6.21104599"/><use xlink:href="#D" x="5.35061892" y="6.21104599"/><use xlink:href="#C" x="5.71962692" y="6.63939399"/><use xlink:href="#D" x="5.71962692" y="6.63939399"/><use xlink:href="#C" x="5.81187892" y="6.74648099"/><use xlink:href="#D" x="5.81187892" y="6.74648099"/><use xlink:href="#C" x="5.90413092" y="6.853567990001"/><use xlink:href="#D" x="5.90413092" y="6.85356799"/><use xlink:href="#C" x="5.62737492" y="6.53230699"/><use xlink:href="#D" x="5.62737492" y="6.53230699"/><use xlink:href="#C" x="5.53512292" y="6.42521999"/><use xlink:href="#D" x="5.53512292" y="6.42521999"/><use xlink:href="#C" x="5.44287092" y="6.31813299"/><use xlink:href="#D" x="5.44287092" y="6.31813299"/><use xlink:href="#C" x="5.9041313" y="6.853568"/><use xlink:href="#D" x="5.9041313" y="6.853568"/><use xlink:href="#C" x="6.2731393" y="7.281916000001"/><use xlink:href="#D" x="6.2731393" y="7.281916"/><use xlink:href="#C" x="6.3653913" y="7.389003"/><use xlink:href="#D" x="6.3653913" y="7.389003"/><use xlink:href="#C" x="6.4576433" y="7.49609"/><use xlink:href="#D" x="6.4576433" y="7.49609"/><use xlink:href="#C" x="6.1808873" y="7.174829"/><use xlink:href="#D" x="6.1808873" y="7.174829"/><use xlink:href="#C" x="6.0886353" y="7.067742"/><use xlink:href="#D" x="6.0886353" y="7.067742"/><use xlink:href="#C" x="5.9963833" y="6.960655"/><use xlink:href="#D" x="5.9963833" y="6.960655"/><use xlink:href="#C" x="6.4576436" y="7.49609"/><use xlink:href="#D" x="6.4576436" y="7.49609"/><use xlink:href="#C" x="6.8266516" y="7.924438"/><use xlink:href="#D" x="6.8266516" y="7.924438"/><use xlink:href="#C" x="6.9189036" y="8.031525"/><use xlink:href="#D" x="6.9189036" y="8.031525"/><use xlink:href="#C" x="7.0111556" y="8.138612000001"/><use xlink:href="#D" x="7.0111556" y="8.138612"/><use xlink:href="#C" x="6.7343996" y="7.817351"/><use xlink:href="#D" x="6.7343996" y="7.817351"/><use xlink:href="#C" x="6.6421476" y="7.710264"/><use xlink:href="#D" x="6.6421476" y="7.710264"/><use xlink:href="#C" x="6.5498956" y="7.603177"/><use xlink:href="#D" x="6.5498956" y="7.603177"/><use xlink:href="#C" x="7.0111559" y="8.138612"/><use xlink:href="#D" x="7.0111559" y="8.138612"/><use xlink:href="#C" x="7.3801639" y="8.566960000001"/><use xlink:href="#D" x="7.3801639" y="8.56696"/><use xlink:href="#C" x="7.4724159" y="8.674047"/><use xlink:href="#D" x="7.4724159" y="8.674047"/><use xlink:href="#C" x="7.5646679" y="8.781134"/><use xlink:href="#D" x="7.5646679" y="8.781134"/><use xlink:href="#C" x="7.2879119" y="8.459873"/><use xlink:href="#D" x="7.2879119" y="8.459873"/><use xlink:href="#C" x="7.1956599" y="8.352786"/><use xlink:href="#D" x="7.1956599" y="8.352786"/><use xlink:href="#C" x="7.1034079" y="8.245699"/><use xlink:href="#D" x="7.1034079" y="8.245699"/><use xlink:href="#C" x="7.65692022" y="8.88822099"/><use xlink:href="#D" x="7.65692022" y="8.88822099"/><use xlink:href="#C" x="8.02592822" y="9.31656899"/><use xlink:href="#D" x="8.02592822" y="9.31656899"/><use xlink:href="#C" x="8.11818022" y="9.42365599"/><use xlink:href="#D" x="8.11818022" y="9.42365599"/><use xlink:href="#C" x="8.21043222" y="9.530742990001"/><use xlink:href="#D" x="8.21043222" y="9.53074299"/><use xlink:href="#C" x="7.93367622" y="9.20948199"/><use xlink:href="#D" x="7.93367622" y="9.20948199"/><use xlink:href="#C" x="7.84142422" y="9.10239499"/><use xlink:href="#D" x="7.84142422" y="9.10239499"/><use xlink:href="#C" x="7.74917222" y="8.99530799"/><use xlink:href="#D" x="7.74917222" y="8.99530799"/><use xlink:href="#C" x="8.2104326" y="9.530743"/><use xlink:href="#D" x="8.2104326" y="9.530743"/><use xlink:href="#C" x="8.5794406" y="9.959091000001"/><use xlink:href="#D" x="8.5794406" y="9.959091"/><use xlink:href="#C" x="8.6716926" y="10.066178"/><use xlink:href="#D" x="8.6716926" y="10.066178"/><use xlink:href="#C" x="8.7639446" y="10.173265"/><use xlink:href="#D" x="8.7639446" y="10.173265"/><use xlink:href="#C" x="8.4871886" y="9.852004"/><use xlink:href="#D" x="8.4871886" y="9.852004"/><use xlink:href="#C" x="8.3949366" y="9.744917"/><use xlink:href="#D" x="8.3949366" y="9.744917"/><use xlink:href="#C" x="8.3026846" y="9.63783"/><use xlink:href="#D" x="8.3026846" y="9.63783"/><use xlink:href="#C" x="8.7639449" y="10.173265"/><use xlink:href="#D" x="8.7639449" y="10.173265"/><use xlink:href="#C" x="9.1329529" y="10.601613"/><use xlink:href="#D" x="9.1329529" y="10.601613"/><use xlink:href="#C" x="9.2252049" y="10.7087"/><use xlink:href="#D" x="9.2252049" y="10.7087"/><use xlink:href="#C" x="9.3174569" y="10.815787000001"/><use xlink:href="#D" x="9.3174569" y="10.815787"/><use xlink:href="#C" x="9.0407009" y="10.494526"/><use xlink:href="#D" x="9.0407009" y="10.494526"/><use xlink:href="#C" x="8.9484489" y="10.387439"/><use xlink:href="#D" x="8.9484489" y="10.387439"/><use xlink:href="#C" x="8.8561969" y="10.280352"/><use xlink:href="#D" x="8.8561969" y="10.280352"/><use xlink:href="#C" x="14.760328" y="17.13392"/><use xlink:href="#D" x="14.760328" y="17.13392"/><use xlink:href="#C" x="15.129336" y="17.562268"/><use xlink:href="#D" x="15.129336" y="17.562268"/><use xlink:href="#C" x="15.221588" y="17.669355"/><use xlink:href="#D" x="15.221588" y="17.669355"/><use xlink:href="#C" x="15.31384" y="17.776442"/><use xlink:href="#D" x="15.31384" y="17.776442"/><use xlink:href="#C" x="15.037084" y="17.455181"/><use xlink:href="#D" x="15.037084" y="17.455181"/><use xlink:href="#C" x="14.944832" y="17.348094000001"/><use xlink:href="#D" x="14.944832" y="17.348094"/><use xlink:href="#C" x="14.85258" y="17.241007"/><use xlink:href="#D" x="14.85258" y="17.241007"/><use xlink:href="#C" x="15.40609232" y="17.88352899"/><use xlink:href="#D" x="15.40609232" y="17.88352899"/><use xlink:href="#C" x="15.77510032" y="18.31187699"/><use xlink:href="#D" x="15.77510032" y="18.31187699"/><use xlink:href="#C" x="15.86735232" y="18.41896399"/><use xlink:href="#D" x="15.86735232" y="18.41896399"/><use xlink:href="#C" x="15.95960432" y="18.526050990001"/><use xlink:href="#D" x="15.95960432" y="18.52605099"/><use xlink:href="#C" x="15.68284832" y="18.20478999"/><use xlink:href="#D" x="15.68284832" y="18.20478999"/><use xlink:href="#C" x="15.59059632" y="18.09770299"/><use xlink:href="#D" x="15.59059632" y="18.09770299"/><use xlink:href="#C" x="15.49834432" y="17.99061599"/><use xlink:href="#D" x="15.49834432" y="17.99061599"/><use xlink:href="#C" x="15.9596047" y="18.526051000001"/><use xlink:href="#D" x="15.9596047" y="18.526051"/><use xlink:href="#C" x="16.3286127" y="18.954399000001"/><use xlink:href="#D" x="16.3286127" y="18.954399"/><use xlink:href="#C" x="16.4208647" y="19.061486"/><use xlink:href="#D" x="16.4208647" y="19.061486"/><use xlink:href="#C" x="16.5131167" y="19.168573"/><use xlink:href="#D" x="16.5131167" y="19.168573"/><use xlink:href="#C" x="16.2363607" y="18.847312000001"/><use xlink:href="#D" x="16.2363607" y="18.847312"/><use xlink:href="#C" x="16.1441087" y="18.740225"/><use xlink:href="#D" x="16.1441087" y="18.740225"/><use xlink:href="#C" x="16.0518567" y="18.633138"/><use xlink:href="#D" x="16.0518567" y="18.633138"/><use xlink:href="#C" x="16.513117" y="19.168573"/><use xlink:href="#D" x="16.513117" y="19.168573"/><use xlink:href="#C" x="16.882125" y="19.596921000001"/><use xlink:href="#D" x="16.882125" y="19.596921"/><use xlink:href="#C" x="16.974377" y="19.704008000001"/><use xlink:href="#D" x="16.974377" y="19.704008"/><use xlink:href="#C" x="17.066629" y="19.811095000001"/><use xlink:href="#D" x="17.066629" y="19.811095"/><use xlink:href="#C" x="16.789873" y="19.489834"/><use xlink:href="#D" x="16.789873" y="19.489834"/><use xlink:href="#C" x="16.697621" y="19.382747000001"/><use xlink:href="#D" x="16.697621" y="19.382747"/><use xlink:href="#C" x="16.605369" y="19.27566"/><use xlink:href="#D" x="16.605369" y="19.27566"/><use xlink:href="#C" x="17.0666293" y="19.811095"/><use xlink:href="#D" x="17.0666293" y="19.811095"/><use xlink:href="#C" x="17.4356373" y="20.239443000001"/><use xlink:href="#D" x="17.4356373" y="20.239443"/><use xlink:href="#C" x="17.5278893" y="20.34653"/><use xlink:href="#D" x="17.5278893" y="20.34653"/><use xlink:href="#C" x="17.6201413" y="20.453617000001"/><use xlink:href="#D" x="17.6201413" y="20.453617"/><use xlink:href="#C" x="17.3433853" y="20.132356"/><use xlink:href="#D" x="17.3433853" y="20.132356"/><use xlink:href="#C" x="17.2511333" y="20.025269"/><use xlink:href="#D" x="17.2511333" y="20.025269"/><use xlink:href="#C" x="17.1588813" y="19.918182"/><use xlink:href="#D" x="17.1588813" y="19.918182"/><use xlink:href="#C" x="17.71239362" y="20.56070399"/><use xlink:href="#D" x="17.71239362" y="20.56070399"/><use xlink:href="#C" x="18.08140162" y="20.989051990001"/><use xlink:href="#D" x="18.08140162" y="20.98905199"/><use xlink:href="#C" x="18.17365362" y="21.09613899"/><use xlink:href="#D" x="18.17365362" y="21.09613899"/><use xlink:href="#C" x="18.26590562" y="21.20322599"/><use xlink:href="#D" x="18.26590562" y="21.20322599"/><use xlink:href="#C" x="17.98914962" y="20.88196499"/><use xlink:href="#D" x="17.98914962" y="20.88196499"/><use xlink:href="#C" x="17.89689762" y="20.77487799"/><use xlink:href="#D" x="17.89689762" y="20.77487799"/><use xlink:href="#C" x="17.80464562" y="20.66779099"/><use xlink:href="#D" x="17.80464562" y="20.66779099"/><use xlink:href="#C" x="18.265906" y="21.203226"/><use xlink:href="#D" x="18.265906" y="21.203226"/><use xlink:href="#C" x="18.634914" y="21.631574000001"/><use xlink:href="#D" x="18.634914" y="21.631574"/><use xlink:href="#C" x="18.727166" y="21.738661000001"/><use xlink:href="#D" x="18.727166" y="21.738661"/><use xlink:href="#C" x="18.819418" y="21.845748"/><use xlink:href="#D" x="18.819418" y="21.845748"/><use xlink:href="#C" x="18.542662" y="21.524487"/><use xlink:href="#D" x="18.542662" y="21.524487"/><use xlink:href="#C" x="18.45041" y="21.4174"/><use xlink:href="#D" x="18.45041" y="21.4174"/><use xlink:href="#C" x="18.358158" y="21.310313"/><use xlink:href="#D" x="18.358158" y="21.310313"/><use xlink:href="#C" x="18.8194183" y="21.845748"/><use xlink:href="#D" x="18.8194183" y="21.845748"/><use xlink:href="#C" x="19.1884263" y="22.274096"/><use xlink:href="#D" x="19.1884263" y="22.274096"/><use xlink:href="#C" x="19.2806783" y="22.381183"/><use xlink:href="#D" x="19.2806783" y="22.381183"/><use xlink:href="#C" x="19.3729303" y="22.488270000001"/><use xlink:href="#D" x="19.3729303" y="22.48827"/><use xlink:href="#C" x="19.0961743" y="22.167009"/><use xlink:href="#D" x="19.0961743" y="22.167009"/><use xlink:href="#C" x="19.0039223" y="22.059922"/><use xlink:href="#D" x="19.0039223" y="22.059922"/><use xlink:href="#C" x="18.9116703" y="21.952835"/><use xlink:href="#D" x="18.9116703" y="21.952835"/><use xlink:href="#C" x="19.4651826" y="22.595357"/><use xlink:href="#D" x="19.4651826" y="22.595357"/><use xlink:href="#C" x="19.8341906" y="23.023705000001"/><use xlink:href="#D" x="19.8341906" y="23.023705"/><use xlink:href="#C" x="19.9264426" y="23.130792"/><use xlink:href="#D" x="19.9264426" y="23.130792"/><use xlink:href="#C" x="20.0186946" y="23.237879000001"/><use xlink:href="#D" x="20.0186946" y="23.237879"/><use xlink:href="#C" x="19.7419386" y="22.916618"/><use xlink:href="#D" x="19.7419386" y="22.916618"/><use xlink:href="#C" x="19.6496866" y="22.809531000001"/><use xlink:href="#D" x="19.6496866" y="22.809531"/><use xlink:href="#C" x="19.5574346" y="22.702444"/><use xlink:href="#D" x="19.5574346" y="22.702444"/><use xlink:href="#C" x="20.11094692" y="23.344965990001"/><use xlink:href="#D" x="20.11094692" y="23.34496599"/><use xlink:href="#C" x="20.47995492" y="23.773313990001"/><use xlink:href="#D" x="20.47995492" y="23.77331399"/><use xlink:href="#C" x="20.57220692" y="23.88040099"/><use xlink:href="#D" x="20.57220692" y="23.88040099"/><use xlink:href="#C" x="20.66445892" y="23.98748799"/><use xlink:href="#D" x="20.66445892" y="23.98748799"/><use xlink:href="#C" x="20.38770292" y="23.66622699"/><use xlink:href="#D" x="20.38770292" y="23.66622699"/><use xlink:href="#C" x="20.29545092" y="23.55913999"/><use xlink:href="#D" x="20.29545092" y="23.55913999"/><use xlink:href="#C" x="20.20319892" y="23.45205299"/><use xlink:href="#D" x="20.20319892" y="23.45205299"/><use xlink:href="#C" x="20.6644593" y="23.987488"/><use xlink:href="#D" x="20.6644593" y="23.987488"/><use xlink:href="#C" x="21.0334673" y="24.415836"/><use xlink:href="#D" x="21.0334673" y="24.415836"/><use xlink:href="#C" x="21.1257193" y="24.522923"/><use xlink:href="#D" x="21.1257193" y="24.522923"/><use xlink:href="#C" x="21.2179713" y="24.63001"/><use xlink:href="#D" x="21.2179713" y="24.63001"/><use xlink:href="#C" x="20.9412153" y="24.308749"/><use xlink:href="#D" x="20.9412153" y="24.308749"/><use xlink:href="#C" x="20.8489633" y="24.201662"/><use xlink:href="#D" x="20.8489633" y="24.201662"/><use xlink:href="#C" x="20.7567113" y="24.094575"/><use xlink:href="#D" x="20.7567113" y="24.094575"/><use xlink:href="#C" x="21.2179716" y="24.63001"/><use xlink:href="#D" x="21.2179716" y="24.63001"/><use xlink:href="#C" x="21.5869796" y="25.058358000001"/><use xlink:href="#D" x="21.5869796" y="25.058358"/><use xlink:href="#C" x="21.6792316" y="25.165445"/><use xlink:href="#D" x="21.6792316" y="25.165445"/><use xlink:href="#C" x="21.7714836" y="25.272532"/><use xlink:href="#D" x="21.7714836" y="25.272532"/><use xlink:href="#C" x="21.4947276" y="24.951271"/><use xlink:href="#D" x="21.4947276" y="24.951271"/><use xlink:href="#C" x="21.4024756" y="24.844184"/><use xlink:href="#D" x="21.4024756" y="24.844184"/><use xlink:href="#C" x="21.3102236" y="24.737097"/><use xlink:href="#D" x="21.3102236" y="24.737097"/><use xlink:href="#C" x="21.7714839" y="25.272532"/><use xlink:href="#D" x="21.7714839" y="25.272532"/><use xlink:href="#C" x="22.1404919" y="25.70088"/><use xlink:href="#D" x="22.1404919" y="25.70088"/><use xlink:href="#C" x="22.2327439" y="25.807967"/><use xlink:href="#D" x="22.2327439" y="25.807967"/><use xlink:href="#C" x="22.3249959" y="25.915054000001"/><use xlink:href="#D" x="22.3249959" y="25.915054"/><use xlink:href="#C" x="22.0482399" y="25.593793"/><use xlink:href="#D" x="22.0482399" y="25.593793"/><use xlink:href="#C" x="21.9559879" y="25.486706"/><use xlink:href="#D" x="21.9559879" y="25.486706"/><use xlink:href="#C" x="21.8637359" y="25.379619"/><use xlink:href="#D" x="21.8637359" y="25.379619"/><use xlink:href="#C" x="22.41724822" y="26.02214099"/><use xlink:href="#D" x="22.41724822" y="26.02214099"/><use xlink:href="#C" x="22.78625622" y="26.45048899"/><use xlink:href="#D" x="22.78625622" y="26.45048899"/><use xlink:href="#C" x="22.87850822" y="26.55757599"/><use xlink:href="#D" x="22.87850822" y="26.55757599"/><use xlink:href="#C" x="22.97076022" y="26.66466299"/><use xlink:href="#D" x="22.97076022" y="26.66466299"/><use xlink:href="#C" x="22.69400422" y="26.34340199"/><use xlink:href="#D" x="22.69400422" y="26.34340199"/><use xlink:href="#C" x="22.60175222" y="26.236314990001"/><use xlink:href="#D" x="22.60175222" y="26.23631499"/><use xlink:href="#C" x="22.50950022" y="26.12922799"/><use xlink:href="#D" x="22.50950022" y="26.12922799"/><use xlink:href="#C" x="22.9707606" y="26.664663"/><use xlink:href="#D" x="22.9707606" y="26.664663"/><use xlink:href="#C" x="23.3397686" y="27.093011000001"/><use xlink:href="#D" x="23.3397686" y="27.093011"/><use xlink:href="#C" x="23.4320206" y="27.200098"/><use xlink:href="#D" x="23.4320206" y="27.200098"/><use xlink:href="#C" x="23.5242726" y="27.307185000001"/><use xlink:href="#D" x="23.5242726" y="27.307185"/><use xlink:href="#C" x="23.2475166" y="26.985924"/><use xlink:href="#D" x="23.2475166" y="26.985924"/><use xlink:href="#C" x="23.1552646" y="26.878837"/><use xlink:href="#D" x="23.1552646" y="26.878837"/><use xlink:href="#C" x="23.0630126" y="26.77175"/><use xlink:href="#D" x="23.0630126" y="26.77175"/><use xlink:href="#C" x="23.5242729" y="27.307185"/><use xlink:href="#D" x="23.5242729" y="27.307185"/><use xlink:href="#C" x="23.8932809" y="27.735533"/><use xlink:href="#D" x="23.8932809" y="27.735533"/><use xlink:href="#C" x="23.9855329" y="27.84262"/><use xlink:href="#D" x="23.9855329" y="27.84262"/><use xlink:href="#C" x="24.0777849" y="27.949707000001"/><use xlink:href="#D" x="24.0777849" y="27.949707"/><use xlink:href="#C" x="23.8010289" y="27.628446000001"/><use xlink:href="#D" x="23.8010289" y="27.628446"/><use xlink:href="#C" x="23.7087769" y="27.521359"/><use xlink:href="#D" x="23.7087769" y="27.521359"/><use xlink:href="#C" x="23.6165249" y="27.414272000001"/><use xlink:href="#D" x="23.6165249" y="27.414272"/></g><g transform="matrix(.0008000550899999999 0 0 .0008204098799999999 .56046238 .19794826)"><use xlink:href="#C" x="9.409709" y="10.922874"/><use xlink:href="#D" x="9.409709" y="10.922874"/><use xlink:href="#C" x="9.778717" y="11.351222"/><use xlink:href="#D" x="9.778717" y="11.351222"/><use xlink:href="#C" x="9.870969" y="11.458309"/><use xlink:href="#D" x="9.870969" y="11.458309"/><use xlink:href="#C" x="9.963221" y="11.565396000001"/><use xlink:href="#D" x="9.963221" y="11.565396"/><use xlink:href="#C" x="9.686465" y="11.244135"/><use xlink:href="#D" x="9.686465" y="11.244135"/><use xlink:href="#C" x="9.594213" y="11.137048"/><use xlink:href="#D" x="9.594213" y="11.137048"/><use xlink:href="#C" x="9.501961" y="11.029961"/><use xlink:href="#D" x="9.501961" y="11.029961"/><use xlink:href="#C" x="10.05547332" y="11.672482990001"/><use xlink:href="#D" x="10.05547332" y="11.67248299"/><use xlink:href="#C" x="10.42448132" y="12.100830990001"/><use xlink:href="#D" x="10.42448132" y="12.10083099"/><use xlink:href="#C" x="10.51673332" y="12.20791799"/><use xlink:href="#D" x="10.51673332" y="12.20791799"/><use xlink:href="#C" x="10.60898532" y="12.31500499"/><use xlink:href="#D" x="10.60898532" y="12.31500499"/><use xlink:href="#C" x="10.33222932" y="11.99374399"/><use xlink:href="#D" x="10.33222932" y="11.99374399"/><use xlink:href="#C" x="10.23997732" y="11.88665699"/><use xlink:href="#D" x="10.23997732" y="11.88665699"/><use xlink:href="#C" x="10.14772532" y="11.77956999"/><use xlink:href="#D" x="10.14772532" y="11.77956999"/><use xlink:href="#C" x="10.6089857" y="12.315005"/><use xlink:href="#D" x="10.6089857" y="12.315005"/><use xlink:href="#C" x="10.9779937" y="12.743353"/><use xlink:href="#D" x="10.9779937" y="12.743353"/><use xlink:href="#C" x="11.0702457" y="12.85044"/><use xlink:href="#D" x="11.0702457" y="12.85044"/><use xlink:href="#C" x="11.1624977" y="12.957527"/><use xlink:href="#D" x="11.1624977" y="12.957527"/><use xlink:href="#C" x="10.8857417" y="12.636266"/><use xlink:href="#D" x="10.8857417" y="12.636266"/><use xlink:href="#C" x="10.7934897" y="12.529179000001"/><use xlink:href="#D" x="10.7934897" y="12.529179"/><use xlink:href="#C" x="10.7012377" y="12.422092"/><use xlink:href="#D" x="10.7012377" y="12.422092"/><use xlink:href="#C" x="11.162498" y="12.957527"/><use xlink:href="#D" x="11.162498" y="12.957527"/><use xlink:href="#C" x="11.531506" y="13.385875000001"/><use xlink:href="#D" x="11.531506" y="13.385875"/><use xlink:href="#C" x="11.623758" y="13.492962"/><use xlink:href="#D" x="11.623758" y="13.492962"/><use xlink:href="#C" x="11.71601" y="13.600049"/><use xlink:href="#D" x="11.71601" y="13.600049"/><use xlink:href="#C" x="11.439254" y="13.278788"/><use xlink:href="#D" x="11.439254" y="13.278788"/><use xlink:href="#C" x="11.347002" y="13.171701"/><use xlink:href="#D" x="11.347002" y="13.171701"/><use xlink:href="#C" x="11.25475" y="13.064614"/><use xlink:href="#D" x="11.25475" y="13.064614"/><use xlink:href="#C" x="11.7160103" y="13.600049"/><use xlink:href="#D" x="11.7160103" y="13.600049"/><use xlink:href="#C" x="12.0850183" y="14.028397"/><use xlink:href="#D" x="12.0850183" y="14.028397"/><use xlink:href="#C" x="12.1772703" y="14.135484"/><use xlink:href="#D" x="12.1772703" y="14.135484"/><use xlink:href="#C" x="12.2695223" y="14.242571000001"/><use xlink:href="#D" x="12.2695223" y="14.242571"/><use xlink:href="#C" x="11.9927663" y="13.92131"/><use xlink:href="#D" x="11.9927663" y="13.92131"/><use xlink:href="#C" x="11.9005143" y="13.814223"/><use xlink:href="#D" x="11.9005143" y="13.814223"/><use xlink:href="#C" x="11.8082623" y="13.707136"/><use xlink:href="#D" x="11.8082623" y="13.707136"/><use xlink:href="#C" x="12.36177462" y="14.34965799"/><use xlink:href="#D" x="12.36177462" y="14.34965799"/><use xlink:href="#C" x="12.73078262" y="14.778005990001"/><use xlink:href="#D" x="12.73078262" y="14.77800599"/><use xlink:href="#C" x="12.82303462" y="14.88509299"/><use xlink:href="#D" x="12.82303462" y="14.88509299"/><use xlink:href="#C" x="12.91528662" y="14.99217999"/><use xlink:href="#D" x="12.91528662" y="14.99217999"/><use xlink:href="#C" x="12.63853062" y="14.67091899"/><use xlink:href="#D" x="12.63853062" y="14.67091899"/><use xlink:href="#C" x="12.54627862" y="14.56383199"/><use xlink:href="#D" x="12.54627862" y="14.56383199"/><use xlink:href="#C" x="12.45402662" y="14.45674499"/><use xlink:href="#D" x="12.45402662" y="14.45674499"/><use xlink:href="#C" x="12.915287" y="14.99218"/><use xlink:href="#D" x="12.915287" y="14.99218"/><use xlink:href="#C" x="13.284295" y="15.420528000001"/><use xlink:href="#D" x="13.284295" y="15.420528"/><use xlink:href="#C" x="13.376547" y="15.527615"/><use xlink:href="#D" x="13.376547" y="15.527615"/><use xlink:href="#C" x="13.468799" y="15.634702000001"/><use xlink:href="#D" x="13.468799" y="15.634702"/><use xlink:href="#C" x="13.192043" y="15.313441"/><use xlink:href="#D" x="13.192043" y="15.313441"/><use xlink:href="#C" x="13.099791" y="15.206354"/><use xlink:href="#D" x="13.099791" y="15.206354"/><use xlink:href="#C" x="13.007539" y="15.099267"/><use xlink:href="#D" x="13.007539" y="15.099267"/><use xlink:href="#C" x="13.4687993" y="15.634702"/><use xlink:href="#D" x="13.4687993" y="15.634702"/><use xlink:href="#C" x="13.8378073" y="16.06305"/><use xlink:href="#D" x="13.8378073" y="16.06305"/><use xlink:href="#C" x="13.9300593" y="16.170137"/><use xlink:href="#D" x="13.9300593" y="16.170137"/><use xlink:href="#C" x="14.0223113" y="16.277224000001"/><use xlink:href="#D" x="14.0223113" y="16.277224"/><use xlink:href="#C" x="13.7455553" y="15.955963"/><use xlink:href="#D" x="13.7455553" y="15.955963"/><use xlink:href="#C" x="13.6533033" y="15.848876"/><use xlink:href="#D" x="13.6533033" y="15.848876"/><use xlink:href="#C" x="13.5610513" y="15.741789"/><use xlink:href="#D" x="13.5610513" y="15.741789"/><use xlink:href="#C" x="14.1145636" y="16.384311"/><use xlink:href="#D" x="14.1145636" y="16.384311"/><use xlink:href="#C" x="14.4835716" y="16.812659000001"/><use xlink:href="#D" x="14.4835716" y="16.812659"/><use xlink:href="#C" x="14.5758236" y="16.919746000001"/><use xlink:href="#D" x="14.5758236" y="16.919746"/><use xlink:href="#C" x="14.6680756" y="17.026833"/><use xlink:href="#D" x="14.6680756" y="17.026833"/><use xlink:href="#C" x="14.3913196" y="16.705572"/><use xlink:href="#D" x="14.3913196" y="16.705572"/><use xlink:href="#C" x="14.2990676" y="16.598485"/><use xlink:href="#D" x="14.2990676" y="16.598485"/><use xlink:href="#C" x="14.2068156" y="16.491398"/><use xlink:href="#D" x="14.2068156" y="16.491398"/><use xlink:href="#C" x="14.76032792" y="17.13391999"/><use xlink:href="#D" x="14.76032792" y="17.13391999"/><use xlink:href="#C" x="15.12933592" y="17.562267990001"/><use xlink:href="#D" x="15.12933592" y="17.56226799"/><use xlink:href="#C" x="15.22158792" y="17.669354990001"/><use xlink:href="#D" x="15.22158792" y="17.66935499"/><use xlink:href="#C" x="15.31383992" y="17.776441990001"/><use xlink:href="#D" x="15.31383992" y="17.77644199"/><use xlink:href="#C" x="15.03708392" y="17.45518099"/><use xlink:href="#D" x="15.03708392" y="17.45518099"/><use xlink:href="#C" x="14.94483192" y="17.348093990001"/><use xlink:href="#D" x="14.94483192" y="17.34809399"/><use xlink:href="#C" x="14.85257992" y="17.241006990001"/><use xlink:href="#D" x="14.85257992" y="17.24100699"/><use xlink:href="#C" x="15.3138403" y="17.776442"/><use xlink:href="#D" x="15.3138403" y="17.776442"/><use xlink:href="#C" x="15.6828483" y="18.204790000001"/><use xlink:href="#D" x="15.6828483" y="18.20479"/><use xlink:href="#C" x="15.7751003" y="18.311877"/><use xlink:href="#D" x="15.7751003" y="18.311877"/><use xlink:href="#C" x="15.8673523" y="18.418964000001"/><use xlink:href="#D" x="15.8673523" y="18.418964"/><use xlink:href="#C" x="15.5905963" y="18.097703"/><use xlink:href="#D" x="15.5905963" y="18.097703"/><use xlink:href="#C" x="15.4983443" y="17.990616000001"/><use xlink:href="#D" x="15.4983443" y="17.990616"/><use xlink:href="#C" x="15.4060923" y="17.883529"/><use xlink:href="#D" x="15.4060923" y="17.883529"/><use xlink:href="#C" x="15.8673526" y="18.418964000001"/><use xlink:href="#D" x="15.8673526" y="18.418964"/><use xlink:href="#C" x="16.2363606" y="18.847312000001"/><use xlink:href="#D" x="16.2363606" y="18.847312"/><use xlink:href="#C" x="16.3286126" y="18.954399"/><use xlink:href="#D" x="16.3286126" y="18.954399"/><use xlink:href="#C" x="16.4208646" y="19.061486000001"/><use xlink:href="#D" x="16.4208646" y="19.061486"/><use xlink:href="#C" x="16.1441086" y="18.740225"/><use xlink:href="#D" x="16.1441086" y="18.740225"/><use xlink:href="#C" x="16.0518566" y="18.633138"/><use xlink:href="#D" x="16.0518566" y="18.633138"/><use xlink:href="#C" x="15.9596046" y="18.526051"/><use xlink:href="#D" x="15.9596046" y="18.526051"/><use xlink:href="#C" x="16.4208649" y="19.061486"/><use xlink:href="#D" x="16.4208649" y="19.061486"/><use xlink:href="#C" x="16.7898729" y="19.489834"/><use xlink:href="#D" x="16.7898729" y="19.489834"/><use xlink:href="#C" x="16.8821249" y="19.596921"/><use xlink:href="#D" x="16.8821249" y="19.596921"/><use xlink:href="#C" x="16.9743769" y="19.704008000001"/><use xlink:href="#D" x="16.9743769" y="19.704008"/><use xlink:href="#C" x="16.6976209" y="19.382747"/><use xlink:href="#D" x="16.6976209" y="19.382747"/><use xlink:href="#C" x="16.6053689" y="19.27566"/><use xlink:href="#D" x="16.6053689" y="19.27566"/><use xlink:href="#C" x="16.5131169" y="19.168573"/><use xlink:href="#D" x="16.5131169" y="19.168573"/><use xlink:href="#C" x="17.06662922" y="19.81109499"/><use xlink:href="#D" x="17.06662922" y="19.81109499"/><use xlink:href="#C" x="17.43563722" y="20.23944299"/><use xlink:href="#D" x="17.43563722" y="20.23944299"/><use xlink:href="#C" x="17.52788922" y="20.34652999"/><use xlink:href="#D" x="17.52788922" y="20.34652999"/><use xlink:href="#C" x="17.62014122" y="20.453616990001"/><use xlink:href="#D" x="17.62014122" y="20.45361699"/><use xlink:href="#C" x="17.34338522" y="20.13235599"/><use xlink:href="#D" x="17.34338522" y="20.13235599"/><use xlink:href="#C" x="17.25113322" y="20.02526899"/><use xlink:href="#D" x="17.25113322" y="20.02526899"/><use xlink:href="#C" x="17.15888122" y="19.91818199"/><use xlink:href="#D" x="17.15888122" y="19.91818199"/><use xlink:href="#C" x="17.6201416" y="20.453617"/><use xlink:href="#D" x="17.6201416" y="20.453617"/><use xlink:href="#C" x="17.9891496" y="20.881965"/><use xlink:href="#D" x="17.9891496" y="20.881965"/><use xlink:href="#C" x="18.0814016" y="20.989052"/><use xlink:href="#D" x="18.0814016" y="20.989052"/><use xlink:href="#C" x="18.1736536" y="21.096139000001"/><use xlink:href="#D" x="18.1736536" y="21.096139"/><use xlink:href="#C" x="17.8968976" y="20.774878"/><use xlink:href="#D" x="17.8968976" y="20.774878"/><use xlink:href="#C" x="17.8046456" y="20.667791"/><use xlink:href="#D" x="17.8046456" y="20.667791"/><use xlink:href="#C" x="17.7123936" y="20.560704000001"/><use xlink:href="#D" x="17.7123936" y="20.560704"/><use xlink:href="#C" x="18.1736539" y="21.096139000001"/><use xlink:href="#D" x="18.1736539" y="21.096139"/><use xlink:href="#C" x="18.5426619" y="21.524487000001"/><use xlink:href="#D" x="18.5426619" y="21.524487"/><use xlink:href="#C" x="18.6349139" y="21.631574"/><use xlink:href="#D" x="18.6349139" y="21.631574"/><use xlink:href="#C" x="18.7271659" y="21.738661000001"/><use xlink:href="#D" x="18.7271659" y="21.738661"/><use xlink:href="#C" x="18.4504099" y="21.4174"/><use xlink:href="#D" x="18.4504099" y="21.4174"/><use xlink:href="#C" x="18.3581579" y="21.310313"/><use xlink:href="#D" x="18.3581579" y="21.310313"/><use xlink:href="#C" x="18.2659059" y="21.203226"/><use xlink:href="#D" x="18.2659059" y="21.203226"/><use xlink:href="#C"/><use xlink:href="#D"/><use xlink:href="#C" x="0.369008" y="0.428348"/><use xlink:href="#D" x="0.369008" y="0.428348"/><use xlink:href="#C" x="0.46126" y="0.535435"/><use xlink:href="#D" x="0.46126" y="0.535435"/><use xlink:href="#C" x="0.553512" y="0.642522"/><use xlink:href="#D" x="0.553512" y="0.642522"/><use xlink:href="#C" x="0.276756" y="0.321261"/><use xlink:href="#D" x="0.276756" y="0.321261"/><use xlink:href="#C" x="0.184504" y="0.214174"/><use xlink:href="#D" x="0.184504" y="0.214174"/><use xlink:href="#C" x="0.092252" y="0.107087"/><use xlink:href="#D" x="0.092252" y="0.107087"/><use xlink:href="#C" x="0.64576432" y="0.74960899"/><use xlink:href="#D" x="0.64576432" y="0.74960899"/><use xlink:href="#C" x="1.01477232" y="1.17795699"/><use xlink:href="#D" x="1.01477232" y="1.17795699"/><use xlink:href="#C" x="1.10702432" y="1.28504399"/><use xlink:href="#D" x="1.10702432" y="1.28504399"/><use xlink:href="#C" x="1.19927632" y="1.392130990001"/><use xlink:href="#D" x="1.19927632" y="1.39213099"/><use xlink:href="#C" x="0.92252032" y="1.07086999"/><use xlink:href="#D" x="0.92252032" y="1.07086999"/><use xlink:href="#C" x="0.83026832" y="0.96378299"/><use xlink:href="#D" x="0.83026832" y="0.96378299"/><use xlink:href="#C" x="0.73801632" y="0.85669599"/><use xlink:href="#D" x="0.73801632" y="0.85669599"/><use xlink:href="#C" x="1.1992767" y="1.392131"/><use xlink:href="#D" x="1.1992767" y="1.392131"/><use xlink:href="#C" x="1.5682847" y="1.820479"/><use xlink:href="#D" x="1.5682847" y="1.820479"/><use xlink:href="#C" x="1.6605367" y="1.927566"/><use xlink:href="#D" x="1.6605367" y="1.927566"/><use xlink:href="#C" x="1.7527887" y="2.034653000001"/><use xlink:href="#D" x="1.7527887" y="2.034653"/><use xlink:href="#C" x="1.4760327" y="1.713392"/><use xlink:href="#D" x="1.4760327" y="1.713392"/><use xlink:href="#C" x="1.3837807" y="1.606305"/><use xlink:href="#D" x="1.3837807" y="1.606305"/><use xlink:href="#C" x="1.2915287" y="1.499218"/><use xlink:href="#D" x="1.2915287" y="1.499218"/><use xlink:href="#C" x="1.752789" y="2.034653000001"/><use xlink:href="#D" x="1.752789" y="2.034653"/><use xlink:href="#C" x="2.121797" y="2.463001000001"/><use xlink:href="#D" x="2.121797" y="2.463001"/><use xlink:href="#C" x="2.214049" y="2.570088"/><use xlink:href="#D" x="2.214049" y="2.570088"/><use xlink:href="#C" x="2.306301" y="2.677175"/><use xlink:href="#D" x="2.306301" y="2.677175"/><use xlink:href="#C" x="2.029545" y="2.355914"/><use xlink:href="#D" x="2.029545" y="2.355914"/><use xlink:href="#C" x="1.937293" y="2.248827"/><use xlink:href="#D" x="1.937293" y="2.248827"/><use xlink:href="#C" x="1.845041" y="2.14174"/><use xlink:href="#D" x="1.845041" y="2.14174"/><use xlink:href="#C" x="2.3063013" y="2.677175"/><use xlink:href="#D" x="2.3063013" y="2.677175"/><use xlink:href="#C" x="2.6753093" y="3.105523000001"/><use xlink:href="#D" x="2.6753093" y="3.105523"/><use xlink:href="#C" x="2.7675613" y="3.21261"/><use xlink:href="#D" x="2.7675613" y="3.21261"/><use xlink:href="#C" x="2.8598133" y="3.319697000001"/><use xlink:href="#D" x="2.8598133" y="3.319697"/><use xlink:href="#C" x="2.5830573" y="2.998436"/><use xlink:href="#D" x="2.5830573" y="2.998436"/><use xlink:href="#C" x="2.4908053" y="2.891349000001"/><use xlink:href="#D" x="2.4908053" y="2.891349"/><use xlink:href="#C" x="2.3985533" y="2.784262"/><use xlink:href="#D" x="2.3985533" y="2.784262"/><use xlink:href="#C" x="2.95206562" y="3.426783990001"/><use xlink:href="#D" x="2.95206562" y="3.42678399"/><use xlink:href="#C" x="3.32107362" y="3.855131990001"/><use xlink:href="#D" x="3.32107362" y="3.85513199"/><use xlink:href="#C" x="3.41332562" y="3.96221899"/><use xlink:href="#D" x="3.41332562" y="3.96221899"/><use xlink:href="#C" x="3.50557762" y="4.06930599"/><use xlink:href="#D" x="3.50557762" y="4.06930599"/><use xlink:href="#C" x="3.22882162" y="3.74804499"/><use xlink:href="#D" x="3.22882162" y="3.74804499"/><use xlink:href="#C" x="3.13656962" y="3.64095799"/><use xlink:href="#D" x="3.13656962" y="3.64095799"/><use xlink:href="#C" x="3.04431762" y="3.53387099"/><use xlink:href="#D" x="3.04431762" y="3.53387099"/><use xlink:href="#C" x="3.505578" y="4.069306"/><use xlink:href="#D" x="3.505578" y="4.069306"/><use xlink:href="#C" x="3.874586" y="4.497654"/><use xlink:href="#D" x="3.874586" y="4.497654"/><use xlink:href="#C" x="3.966838" y="4.604741"/><use xlink:href="#D" x="3.966838" y="4.604741"/><use xlink:href="#C" x="4.05909" y="4.711828000001"/><use xlink:href="#D" x="4.05909" y="4.711828"/><use xlink:href="#C" x="3.782334" y="4.390567"/><use xlink:href="#D" x="3.782334" y="4.390567"/><use xlink:href="#C" x="3.690082" y="4.28348"/><use xlink:href="#D" x="3.690082" y="4.28348"/><use xlink:href="#C" x="3.59783" y="4.176393"/><use xlink:href="#D" x="3.59783" y="4.176393"/><use xlink:href="#C" x="4.0590903" y="4.711828"/><use xlink:href="#D" x="4.0590903" y="4.711828"/><use xlink:href="#C" x="4.4280983" y="5.140176000001"/><use xlink:href="#D" x="4.4280983" y="5.140176"/><use xlink:href="#C" x="4.5203503" y="5.247263"/><use xlink:href="#D" x="4.5203503" y="5.247263"/><use xlink:href="#C" x="4.6126023" y="5.35435"/><use xlink:href="#D" x="4.6126023" y="5.35435"/><use xlink:href="#C" x="4.3358463" y="5.033089"/><use xlink:href="#D" x="4.3358463" y="5.033089"/><use xlink:href="#C" x="4.2435943" y="4.926002"/><use xlink:href="#D" x="4.2435943" y="4.926002"/><use xlink:href="#C" x="4.1513423" y="4.818915"/><use xlink:href="#D" x="4.1513423" y="4.818915"/><use xlink:href="#C" x="4.7048546" y="5.461437000001"/><use xlink:href="#D" x="4.7048546" y="5.461437"/><use xlink:href="#C" x="5.0738626" y="5.889785000001"/><use xlink:href="#D" x="5.0738626" y="5.889785"/><use xlink:href="#C" x="5.1661146" y="5.996872"/><use xlink:href="#D" x="5.1661146" y="5.996872"/><use xlink:href="#C" x="5.2583666" y="6.103959"/><use xlink:href="#D" x="5.2583666" y="6.103959"/><use xlink:href="#C" x="4.9816106" y="5.782698"/><use xlink:href="#D" x="4.9816106" y="5.782698"/><use xlink:href="#C" x="4.8893586" y="5.675611"/><use xlink:href="#D" x="4.8893586" y="5.675611"/><use xlink:href="#C" x="4.7971066" y="5.568524"/><use xlink:href="#D" x="4.7971066" y="5.568524"/><use xlink:href="#C" x="5.35061892" y="6.21104599"/><use xlink:href="#D" x="5.35061892" y="6.21104599"/><use xlink:href="#C" x="5.71962692" y="6.63939399"/><use xlink:href="#D" x="5.71962692" y="6.63939399"/><use xlink:href="#C" x="5.81187892" y="6.74648099"/><use xlink:href="#D" x="5.81187892" y="6.74648099"/><use xlink:href="#C" x="5.90413092" y="6.853567990001"/><use xlink:href="#D" x="5.90413092" y="6.85356799"/><use xlink:href="#C" x="5.62737492" y="6.53230699"/><use xlink:href="#D" x="5.62737492" y="6.53230699"/><use xlink:href="#C" x="5.53512292" y="6.42521999"/><use xlink:href="#D" x="5.53512292" y="6.42521999"/><use xlink:href="#C" x="5.44287092" y="6.31813299"/><use xlink:href="#D" x="5.44287092" y="6.31813299"/><use xlink:href="#C" x="5.9041313" y="6.853568"/><use xlink:href="#D" x="5.9041313" y="6.853568"/><use xlink:href="#C" x="6.2731393" y="7.281916000001"/><use xlink:href="#D" x="6.2731393" y="7.281916"/><use xlink:href="#C" x="6.3653913" y="7.389003"/><use xlink:href="#D" x="6.3653913" y="7.389003"/><use xlink:href="#C" x="6.4576433" y="7.49609"/><use xlink:href="#D" x="6.4576433" y="7.49609"/><use xlink:href="#C" x="6.1808873" y="7.174829"/><use xlink:href="#D" x="6.1808873" y="7.174829"/><use xlink:href="#C" x="6.0886353" y="7.067742"/><use xlink:href="#D" x="6.0886353" y="7.067742"/><use xlink:href="#C" x="5.9963833" y="6.960655"/><use xlink:href="#D" x="5.9963833" y="6.960655"/><use xlink:href="#C" x="6.4576436" y="7.49609"/><use xlink:href="#D" x="6.4576436" y="7.49609"/><use xlink:href="#C" x="6.8266516" y="7.924438"/><use xlink:href="#D" x="6.8266516" y="7.924438"/><use xlink:href="#C" x="6.9189036" y="8.031525"/><use xlink:href="#D" x="6.9189036" y="8.031525"/><use xlink:href="#C" x="7.0111556" y="8.138612000001"/><use xlink:href="#D" x="7.0111556" y="8.138612"/><use xlink:href="#C" x="6.7343996" y="7.817351"/><use xlink:href="#D" x="6.7343996" y="7.817351"/><use xlink:href="#C" x="6.6421476" y="7.710264"/><use xlink:href="#D" x="6.6421476" y="7.710264"/><use xlink:href="#C" x="6.5498956" y="7.603177"/><use xlink:href="#D" x="6.5498956" y="7.603177"/><use xlink:href="#C" x="7.0111559" y="8.138612"/><use xlink:href="#D" x="7.0111559" y="8.138612"/><use xlink:href="#C" x="7.3801639" y="8.566960000001"/><use xlink:href="#D" x="7.3801639" y="8.56696"/><use xlink:href="#C" x="7.4724159" y="8.674047"/><use xlink:href="#D" x="7.4724159" y="8.674047"/><use xlink:href="#C" x="7.5646679" y="8.781134"/><use xlink:href="#D" x="7.5646679" y="8.781134"/><use xlink:href="#C" x="7.2879119" y="8.459873"/><use xlink:href="#D" x="7.2879119" y="8.459873"/><use xlink:href="#C" x="7.1956599" y="8.352786"/><use xlink:href="#D" x="7.1956599" y="8.352786"/><use xlink:href="#C" x="7.1034079" y="8.245699"/><use xlink:href="#D" x="7.1034079" y="8.245699"/><use xlink:href="#C" x="7.65692022" y="8.88822099"/><use xlink:href="#D" x="7.65692022" y="8.88822099"/><use xlink:href="#C" x="8.02592822" y="9.31656899"/><use xlink:href="#D" x="8.02592822" y="9.31656899"/><use xlink:href="#C" x="8.11818022" y="9.42365599"/><use xlink:href="#D" x="8.11818022" y="9.42365599"/><use xlink:href="#C" x="8.21043222" y="9.530742990001"/><use xlink:href="#D" x="8.21043222" y="9.53074299"/><use xlink:href="#C" x="7.93367622" y="9.20948199"/><use xlink:href="#D" x="7.93367622" y="9.20948199"/><use xlink:href="#C" x="7.84142422" y="9.10239499"/><use xlink:href="#D" x="7.84142422" y="9.10239499"/><use xlink:href="#C" x="7.74917222" y="8.99530799"/><use xlink:href="#D" x="7.74917222" y="8.99530799"/><use xlink:href="#C" x="8.2104326" y="9.530743"/><use xlink:href="#D" x="8.2104326" y="9.530743"/><use xlink:href="#C" x="8.5794406" y="9.959091000001"/><use xlink:href="#D" x="8.5794406" y="9.959091"/><use xlink:href="#C" x="8.6716926" y="10.066178"/><use xlink:href="#D" x="8.6716926" y="10.066178"/><use xlink:href="#C" x="8.7639446" y="10.173265"/><use xlink:href="#D" x="8.7639446" y="10.173265"/><use xlink:href="#C" x="8.4871886" y="9.852004"/><use xlink:href="#D" x="8.4871886" y="9.852004"/><use xlink:href="#C" x="8.3949366" y="9.744917"/><use xlink:href="#D" x="8.3949366" y="9.744917"/><use xlink:href="#C" x="8.3026846" y="9.63783"/><use xlink:href="#D" x="8.3026846" y="9.63783"/><use xlink:href="#C" x="8.7639449" y="10.173265"/><use xlink:href="#D" x="8.7639449" y="10.173265"/><use xlink:href="#C" x="9.1329529" y="10.601613"/><use xlink:href="#D" x="9.1329529" y="10.601613"/><use xlink:href="#C" x="9.2252049" y="10.7087"/><use xlink:href="#D" x="9.2252049" y="10.7087"/><use xlink:href="#C" x="9.3174569" y="10.815787000001"/><use xlink:href="#D" x="9.3174569" y="10.815787"/><use xlink:href="#C" x="9.0407009" y="10.494526"/><use xlink:href="#D" x="9.0407009" y="10.494526"/><use xlink:href="#C" x="8.9484489" y="10.387439"/><use xlink:href="#D" x="8.9484489" y="10.387439"/><use xlink:href="#C" x="8.8561969" y="10.280352"/><use xlink:href="#D" x="8.8561969" y="10.280352"/><use xlink:href="#C" x="14.760328" y="17.13392"/><use xlink:href="#D" x="14.760328" y="17.13392"/><use xlink:href="#C" x="15.129336" y="17.562268"/><use xlink:href="#D" x="15.129336" y="17.562268"/><use xlink:href="#C" x="15.221588" y="17.669355"/><use xlink:href="#D" x="15.221588" y="17.669355"/><use xlink:href="#C" x="15.31384" y="17.776442"/><use xlink:href="#D" x="15.31384" y="17.776442"/><use xlink:href="#C" x="15.037084" y="17.455181"/><use xlink:href="#D" x="15.037084" y="17.455181"/><use xlink:href="#C" x="14.944832" y="17.348094000001"/><use xlink:href="#D" x="14.944832" y="17.348094"/><use xlink:href="#C" x="14.85258" y="17.241007"/><use xlink:href="#D" x="14.85258" y="17.241007"/><use xlink:href="#C" x="15.40609232" y="17.88352899"/><use xlink:href="#D" x="15.40609232" y="17.88352899"/><use xlink:href="#C" x="15.77510032" y="18.31187699"/><use xlink:href="#D" x="15.77510032" y="18.31187699"/><use xlink:href="#C" x="15.86735232" y="18.41896399"/><use xlink:href="#D" x="15.86735232" y="18.41896399"/><use xlink:href="#C" x="15.95960432" y="18.526050990001"/><use xlink:href="#D" x="15.95960432" y="18.52605099"/><use xlink:href="#C" x="15.68284832" y="18.20478999"/><use xlink:href="#D" x="15.68284832" y="18.20478999"/><use xlink:href="#C" x="15.59059632" y="18.09770299"/><use xlink:href="#D" x="15.59059632" y="18.09770299"/><use xlink:href="#C" x="15.49834432" y="17.99061599"/><use xlink:href="#D" x="15.49834432" y="17.99061599"/><use xlink:href="#C" x="15.9596047" y="18.526051000001"/><use xlink:href="#D" x="15.9596047" y="18.526051"/><use xlink:href="#C" x="16.3286127" y="18.954399000001"/><use xlink:href="#D" x="16.3286127" y="18.954399"/><use xlink:href="#C" x="16.4208647" y="19.061486"/><use xlink:href="#D" x="16.4208647" y="19.061486"/><use xlink:href="#C" x="16.5131167" y="19.168573"/><use xlink:href="#D" x="16.5131167" y="19.168573"/><use xlink:href="#C" x="16.2363607" y="18.847312000001"/><use xlink:href="#D" x="16.2363607" y="18.847312"/><use xlink:href="#C" x="16.1441087" y="18.740225"/><use xlink:href="#D" x="16.1441087" y="18.740225"/><use xlink:href="#C" x="16.0518567" y="18.633138"/><use xlink:href="#D" x="16.0518567" y="18.633138"/><use xlink:href="#C" x="16.513117" y="19.168573"/><use xlink:href="#D" x="16.513117" y="19.168573"/><use xlink:href="#C" x="16.882125" y="19.596921000001"/><use xlink:href="#D" x="16.882125" y="19.596921"/><use xlink:href="#C" x="16.974377" y="19.704008000001"/><use xlink:href="#D" x="16.974377" y="19.704008"/><use xlink:href="#C" x="17.066629" y="19.811095000001"/><use xlink:href="#D" x="17.066629" y="19.811095"/><use xlink:href="#C" x="16.789873" y="19.489834"/><use xlink:href="#D" x="16.789873" y="19.489834"/><use xlink:href="#C" x="16.697621" y="19.382747000001"/><use xlink:href="#D" x="16.697621" y="19.382747"/><use xlink:href="#C" x="16.605369" y="19.27566"/><use xlink:href="#D" x="16.605369" y="19.27566"/><use xlink:href="#C" x="17.0666293" y="19.811095"/><use xlink:href="#D" x="17.0666293" y="19.811095"/><use xlink:href="#C" x="17.4356373" y="20.239443000001"/><use xlink:href="#D" x="17.4356373" y="20.239443"/><use xlink:href="#C" x="17.5278893" y="20.34653"/><use xlink:href="#D" x="17.5278893" y="20.34653"/><use xlink:href="#C" x="17.6201413" y="20.453617000001"/><use xlink:href="#D" x="17.6201413" y="20.453617"/><use xlink:href="#C" x="17.3433853" y="20.132356"/><use xlink:href="#D" x="17.3433853" y="20.132356"/><use xlink:href="#C" x="17.2511333" y="20.025269"/><use xlink:href="#D" x="17.2511333" y="20.025269"/><use xlink:href="#C" x="17.1588813" y="19.918182"/><use xlink:href="#D" x="17.1588813" y="19.918182"/><use xlink:href="#C" x="17.71239362" y="20.56070399"/><use xlink:href="#D" x="17.71239362" y="20.56070399"/><use xlink:href="#C" x="18.08140162" y="20.989051990001"/><use xlink:href="#D" x="18.08140162" y="20.98905199"/><use xlink:href="#C" x="18.17365362" y="21.09613899"/><use xlink:href="#D" x="18.17365362" y="21.09613899"/><use xlink:href="#C" x="18.26590562" y="21.20322599"/><use xlink:href="#D" x="18.26590562" y="21.20322599"/><use xlink:href="#C" x="17.98914962" y="20.88196499"/><use xlink:href="#D" x="17.98914962" y="20.88196499"/><use xlink:href="#C" x="17.89689762" y="20.77487799"/><use xlink:href="#D" x="17.89689762" y="20.77487799"/><use xlink:href="#C" x="17.80464562" y="20.66779099"/><use xlink:href="#D" x="17.80464562" y="20.66779099"/><use xlink:href="#C" x="18.265906" y="21.203226"/><use xlink:href="#D" x="18.265906" y="21.203226"/><use xlink:href="#C" x="18.634914" y="21.631574000001"/><use xlink:href="#D" x="18.634914" y="21.631574"/><use xlink:href="#C" x="18.727166" y="21.738661000001"/><use xlink:href="#D" x="18.727166" y="21.738661"/><use xlink:href="#C" x="18.819418" y="21.845748"/><use xlink:href="#D" x="18.819418" y="21.845748"/><use xlink:href="#C" x="18.542662" y="21.524487"/><use xlink:href="#D" x="18.542662" y="21.524487"/><use xlink:href="#C" x="18.45041" y="21.4174"/><use xlink:href="#D" x="18.45041" y="21.4174"/><use xlink:href="#C" x="18.358158" y="21.310313"/><use xlink:href="#D" x="18.358158" y="21.310313"/><use xlink:href="#C" x="18.8194183" y="21.845748"/><use xlink:href="#D" x="18.8194183" y="21.845748"/><use xlink:href="#C" x="19.1884263" y="22.274096"/><use xlink:href="#D" x="19.1884263" y="22.274096"/><use xlink:href="#C" x="19.2806783" y="22.381183"/><use xlink:href="#D" x="19.2806783" y="22.381183"/><use xlink:href="#C" x="19.3729303" y="22.488270000001"/><use xlink:href="#D" x="19.3729303" y="22.48827"/><use xlink:href="#C" x="19.0961743" y="22.167009"/><use xlink:href="#D" x="19.0961743" y="22.167009"/><use xlink:href="#C" x="19.0039223" y="22.059922"/><use xlink:href="#D" x="19.0039223" y="22.059922"/><use xlink:href="#C" x="18.9116703" y="21.952835"/><use xlink:href="#D" x="18.9116703" y="21.952835"/><use xlink:href="#C" x="19.4651826" y="22.595357"/><use xlink:href="#D" x="19.4651826" y="22.595357"/><use xlink:href="#C" x="19.8341906" y="23.023705000001"/><use xlink:href="#D" x="19.8341906" y="23.023705"/><use xlink:href="#C" x="19.9264426" y="23.130792"/><use xlink:href="#D" x="19.9264426" y="23.130792"/><use xlink:href="#C" x="20.0186946" y="23.237879000001"/><use xlink:href="#D" x="20.0186946" y="23.237879"/><use xlink:href="#C" x="19.7419386" y="22.916618"/><use xlink:href="#D" x="19.7419386" y="22.916618"/><use xlink:href="#C" x="19.6496866" y="22.809531000001"/><use xlink:href="#D" x="19.6496866" y="22.809531"/><use xlink:href="#C" x="19.5574346" y="22.702444"/><use xlink:href="#D" x="19.5574346" y="22.702444"/><use xlink:href="#C" x="20.11094692" y="23.344965990001"/><use xlink:href="#D" x="20.11094692" y="23.34496599"/><use xlink:href="#C" x="20.47995492" y="23.773313990001"/><use xlink:href="#D" x="20.47995492" y="23.77331399"/><use xlink:href="#C" x="20.57220692" y="23.88040099"/><use xlink:href="#D" x="20.57220692" y="23.88040099"/><use xlink:href="#C" x="20.66445892" y="23.98748799"/><use xlink:href="#D" x="20.66445892" y="23.98748799"/><use xlink:href="#C" x="20.38770292" y="23.66622699"/><use xlink:href="#D" x="20.38770292" y="23.66622699"/><use xlink:href="#C" x="20.29545092" y="23.55913999"/><use xlink:href="#D" x="20.29545092" y="23.55913999"/><use xlink:href="#C" x="20.20319892" y="23.45205299"/><use xlink:href="#D" x="20.20319892" y="23.45205299"/><use xlink:href="#C" x="20.6644593" y="23.987488"/><use xlink:href="#D" x="20.6644593" y="23.987488"/><use xlink:href="#C" x="21.0334673" y="24.415836"/><use xlink:href="#D" x="21.0334673" y="24.415836"/><use xlink:href="#C" x="21.1257193" y="24.522923"/><use xlink:href="#D" x="21.1257193" y="24.522923"/><use xlink:href="#C" x="21.2179713" y="24.63001"/><use xlink:href="#D" x="21.2179713" y="24.63001"/><use xlink:href="#C" x="20.9412153" y="24.308749"/><use xlink:href="#D" x="20.9412153" y="24.308749"/><use xlink:href="#C" x="20.8489633" y="24.201662"/><use xlink:href="#D" x="20.8489633" y="24.201662"/><use xlink:href="#C" x="20.7567113" y="24.094575"/><use xlink:href="#D" x="20.7567113" y="24.094575"/><use xlink:href="#C" x="21.2179716" y="24.63001"/><use xlink:href="#D" x="21.2179716" y="24.63001"/><use xlink:href="#C" x="21.5869796" y="25.058358000001"/><use xlink:href="#D" x="21.5869796" y="25.058358"/><use xlink:href="#C" x="21.6792316" y="25.165445"/><use xlink:href="#D" x="21.6792316" y="25.165445"/><use xlink:href="#C" x="21.7714836" y="25.272532"/><use xlink:href="#D" x="21.7714836" y="25.272532"/><use xlink:href="#C" x="21.4947276" y="24.951271"/><use xlink:href="#D" x="21.4947276" y="24.951271"/><use xlink:href="#C" x="21.4024756" y="24.844184"/><use xlink:href="#D" x="21.4024756" y="24.844184"/><use xlink:href="#C" x="21.3102236" y="24.737097"/><use xlink:href="#D" x="21.3102236" y="24.737097"/><use xlink:href="#C" x="21.7714839" y="25.272532"/><use xlink:href="#D" x="21.7714839" y="25.272532"/><use xlink:href="#C" x="22.1404919" y="25.70088"/><use xlink:href="#D" x="22.1404919" y="25.70088"/><use xlink:href="#C" x="22.2327439" y="25.807967"/><use xlink:href="#D" x="22.2327439" y="25.807967"/><use xlink:href="#C" x="22.3249959" y="25.915054000001"/><use xlink:href="#D" x="22.3249959" y="25.915054"/><use xlink:href="#C" x="22.0482399" y="25.593793"/><use xlink:href="#D" x="22.0482399" y="25.593793"/><use xlink:href="#C" x="21.9559879" y="25.486706"/><use xlink:href="#D" x="21.9559879" y="25.486706"/><use xlink:href="#C" x="21.8637359" y="25.379619"/><use xlink:href="#D" x="21.8637359" y="25.379619"/><use xlink:href="#C" x="22.41724822" y="26.02214099"/><use xlink:href="#D" x="22.41724822" y="26.02214099"/><use xlink:href="#C" x="22.78625622" y="26.45048899"/><use xlink:href="#D" x="22.78625622" y="26.45048899"/><use xlink:href="#C" x="22.87850822" y="26.55757599"/><use xlink:href="#D" x="22.87850822" y="26.55757599"/><use xlink:href="#C" x="22.97076022" y="26.66466299"/><use xlink:href="#D" x="22.97076022" y="26.66466299"/><use xlink:href="#C" x="22.69400422" y="26.34340199"/><use xlink:href="#D" x="22.69400422" y="26.34340199"/><use xlink:href="#C" x="22.60175222" y="26.236314990001"/><use xlink:href="#D" x="22.60175222" y="26.23631499"/><use xlink:href="#C" x="22.50950022" y="26.12922799"/><use xlink:href="#D" x="22.50950022" y="26.12922799"/><use xlink:href="#C" x="22.9707606" y="26.664663"/><use xlink:href="#D" x="22.9707606" y="26.664663"/><use xlink:href="#C" x="23.3397686" y="27.093011000001"/><use xlink:href="#D" x="23.3397686" y="27.093011"/><use xlink:href="#C" x="23.4320206" y="27.200098"/><use xlink:href="#D" x="23.4320206" y="27.200098"/><use xlink:href="#C" x="23.5242726" y="27.307185000001"/><use xlink:href="#D" x="23.5242726" y="27.307185"/><use xlink:href="#C" x="23.2475166" y="26.985924"/><use xlink:href="#D" x="23.2475166" y="26.985924"/><use xlink:href="#C" x="23.1552646" y="26.878837"/><use xlink:href="#D" x="23.1552646" y="26.878837"/><use xlink:href="#C" x="23.0630126" y="26.77175"/><use xlink:href="#D" x="23.0630126" y="26.77175"/><use xlink:href="#C" x="23.5242729" y="27.307185"/><use xlink:href="#D" x="23.5242729" y="27.307185"/><use xlink:href="#C" x="23.8932809" y="27.735533"/><use xlink:href="#D" x="23.8932809" y="27.735533"/><use xlink:href="#C" x="23.9855329" y="27.84262"/><use xlink:href="#D" x="23.9855329" y="27.84262"/><use xlink:href="#C" x="24.0777849" y="27.949707000001"/><use xlink:href="#D" x="24.0777849" y="27.949707"/><use xlink:href="#C" x="23.8010289" y="27.628446000001"/><use xlink:href="#D" x="23.8010289" y="27.628446"/><use xlink:href="#C" x="23.7087769" y="27.521359"/><use xlink:href="#D" x="23.7087769" y="27.521359"/><use xlink:href="#C" x="23.6165249" y="27.414272000001"/><use xlink:href="#D" x="23.6165249" y="27.414272"/></g><use xlink:href="#B" x="-0.02179653" y="0.04747346"/><path d="M.646929259035.388763324286L.64692529742.406270671215.639661835645.39750983868z"/><use xlink:href="#B" x="-0.02179257" y="0.02996605"/><path d="M.646933219035.371255914286L.64692925742.388763261215.639665795645.38000242868z"/><use xlink:href="#B" x="-0.02178861" y="0.01245863"/><path d="M.646937179035.353748494286L.64693321742.371255841215.639669755645.36249500868z"/><use xlink:href="#B" x="-0.02178465" y="-0.00504878"/><path d="M.646941139035.336241084286L.64693717742.353748431215.639673715645.34498759868z"/><use xlink:href="#B" x="0.03631731" y="0.04423849"/><path d="M.705043099035.385528354286L.70503913742.403035701215.697775675645.39427486868z"/><use xlink:href="#B" x="0.03632128" y="0.02673107"/><path d="M.705047069035.368020934286L.70504310742.385528281215.697779645645.37676744868z"/><use xlink:href="#B" x="0.03632524" y="0.00922365"/><path d="M.705051029035.350513514286L.70504706742.368020861215.697783605645.35926002868z"/><use xlink:href="#B" x="0.0363292" y="-0.00828376"/><path d="M.705054989035.333006104286L.70505102742.350513451215.697787565645.34175261868z"/><use xlink:href="#B" x="-0.02184173" y="0.05656338"/><path d="M.646884059035.397853244286L.64688009742.415360591215.639616635645.40659975868z"/><use xlink:href="#B" x="0.03632012" y="-0.01710029"/><path d="M.705045909035.324189574286L.70504194742.341696921215.697778485645.33293608868z"/></g><defs ><path id="B" d="M.661458364286.350036375235l.000003961616-.01750734693.007263461774.008760832534z"/><path id="C" d="M108.083796239195 143.426476380577l.00005031599-.213998917623.09225232286.107086966825z"/><path id="D" d="M108.17609889531 143.319564471896l-.00005031599.213998917623-.09225232286-.107086966825z"/></defs></svg>