<svg aria-hidden="true" style="position: absolute; width: 0; height: 0; overflow: hidden;" version="1.1" xmlns="http://www.w3.org/2000/svg" xmlns:xlink="http://www.w3.org/1999/xlink">
<defs>
<symbol id="icon-school" viewBox="0 0 24 24">
<title>school</title>
<path d="M12 3l11.016 6v8.016h-2.016v-6.938l-9 4.922-11.016-6zM5.016 13.172l6.984 3.844 6.984-3.844v4.031l-6.984 3.797-6.984-3.797v-4.031z"></path>
</symbol>
<symbol id="icon-linkedin" viewBox="0 0 32 32">
<title>linkedin</title>
<path fill="#0077b5" style="fill: var(--color1, #0077b5)" d="M27.263 27.269h-4.739v-7.425c0-1.771-0.036-4.049-2.469-4.049-2.471 0-2.848 1.927-2.848 3.919v7.556h-4.739v-15.269h4.552v2.081h0.061c0.636-1.2 2.183-2.467 4.493-2.467 4.801 0 5.689 3.16 5.689 7.273zM7.116 9.911c-1.525 0-2.751-1.235-2.751-2.753 0-1.517 1.227-2.751 2.751-2.751 1.52 0 2.752 1.233 2.752 2.751 0 1.519-1.233 2.753-2.752 2.753zM9.492 27.269h-4.752v-15.269h4.752zM29.633 0h-27.272c-1.305 0-2.361 1.032-2.361 2.305v27.389c0 1.275 1.056 2.305 2.361 2.305h27.268c1.304 0 2.371-1.031 2.371-2.305v-27.389c0-1.273-1.067-2.305-2.371-2.305z"></path>
</symbol>
<symbol id="icon-gmail" viewBox="0 0 32 32">
<title>gmail</title>
<path fill="#d14836" style="fill: var(--color2, #d14836)" d="M32 6v20c0 1.133-0.867 2-2 2h-2v-18.151l-12 8.617-12-8.617v18.151h-2c-1.135 0-2-0.867-2-2v-20c0-0.567 0.216-1.067 0.575-1.424 0.359-0.363 0.86-0.576 1.425-0.576h0.667l13.333 9.667 13.333-9.667h0.667c0.567 0 1.067 0.216 1.425 0.576 0.36 0.357 0.575 0.857 0.575 1.424z"></path>
</symbol>
<symbol id="icon-accommodate" viewBox="0 0 32 32">
<title>accommodate</title>
<path d="M8 28v-15l8-9 8 9v15h-16z"></path>
</symbol>
<symbol id="icon-add" viewBox="0 0 32 32">
<title>add</title>
<path d="M24 18h-6v6h-4v-6h-6v-4h6v-6h4v6h6v4z"></path>
</symbol>
<symbol id="icon-adjust" viewBox="0 0 32 32">
<title>adjust</title>
<path d="M26 8v4h-4v4h-4v-4h-12v-4h12v-4h4v4h4zM14 16h-4v4h-4v4h4v4h4v-4h12v-4h-12v-4z"></path>
</symbol>
<symbol id="icon-alarm" viewBox="0 0 32 32">
<title>alarm</title>
<path d="M26 20v4h-8v4h-4v-4h-8v-4h4v-12h4v-4h4v4h4v12h4z"></path>
</symbol>
<symbol id="icon-alert" viewBox="0 0 32 32">
<title>alert</title>
<path d="M18 4v16h-4v-16h4zM14 28h4v-4h-4v4z"></path>
</symbol>
<symbol id="icon-anchor" viewBox="0 0 32 32">
<title>anchor</title>
<path d="M28 17l-12 12-12-12 2.8-2.8 7.2 7.2v-10.4h-4v-4h4v-4h4v4h4v4h-4v10.3l7.2-7.2 2.8 2.9z"></path>
</symbol>
<symbol id="icon-arrest" viewBox="0 0 32 32">
<title>arrest</title>
<path d="M26 4v24h-4v-24h4zM14 28h4v-24h-4v24zM6 28h4v-24h-4v24z"></path>
</symbol>
<symbol id="icon-ascend" viewBox="0 0 32 32">
<title>ascend</title>
<path d="M28 4v24h-24v-4h4v-4h4v-4h4v-4h4v-4h4v-4h4z"></path>
</symbol>
<symbol id="icon-ask" viewBox="0 0 32 32">
<title>ask</title>
<path d="M10 24h4v4h-4v-4zM10 4v4h8v4h-8v8h4v-4h8v-12h-12z"></path>
</symbol>
<symbol id="icon-bake" viewBox="0 0 32 32">
<title>bake</title>
<path d="M8 24h16v4h-16v-4zM8 4v16h16v-16h-16z"></path>
</symbol>
<symbol id="icon-bite" viewBox="0 0 32 32">
<title>bite</title>
<path d="M24 18l4 4v4h-24v-4l4-4 4 4 4-4 4 4 4-4zM4 6v4l4 4 4-4 4 4 4-4 4 4 4-4v-4h-24z"></path>
</symbol>
<symbol id="icon-blaze" viewBox="0 0 32 32">
<title>blaze</title>
<path d="M16 16h4v12h-12v-12h4v-4h4v4zM20 4v12h4v-12h-4z"></path>
</symbol>
<symbol id="icon-blow" viewBox="0 0 32 32">
<title>blow</title>
<path d="M22 10v-8h-8v4h-8v8h4v8h4v8h4v-12h8v-8h-4zM18 14h-4v-4h4v4z"></path>
</symbol>
<symbol id="icon-bookmark" viewBox="0 0 32 32">
<title>bookmark</title>
<path d="M24 4v24l-8-8-8 8v-24h16z"></path>
</symbol>
<symbol id="icon-broadcast" viewBox="0 0 32 32">
<title>broadcast</title>
<path d="M6 12h4v8h-4v-8zM22 4v24h4v-24h-4zM14 24h4v-16h-4v16z"></path>
</symbol>
<symbol id="icon-call" viewBox="0 0 32 32">
<title>call</title>
<path d="M28 22l-6 6-18-18 6-6 6 6-3 3 6 6 3-3 6 6z"></path>
</symbol>
<symbol id="icon-camp" viewBox="0 0 32 32">
<title>camp</title>
<path d="M27.3 18l-5.7 5.7-5.6-5.7-5.7 5.7-5.6-5.7 11.3-11.3 11.3 11.3z"></path>
</symbol>
<symbol id="icon-climb" viewBox="0 0 32 32">
<title>climb</title>
<path d="M28.728 16.586l-2.828 2.828-5.657-5.657-2.828 2.828 2.828 2.828-2.828 2.828-5.657-5.657-5.657 5.657-2.828-2.828 8.485-8.485 2.828 2.828 5.657-5.656 8.485 8.486z"></path>
</symbol>
<symbol id="icon-collect" viewBox="0 0 32 32">
<title>collect</title>
<path d="M24 12v-8h-16v8.060l-4-0.005v15.945h24v-16h-4zM20 12h-8v-4h8v4z"></path>
</symbol>
<symbol id="icon-connect" viewBox="0 0 32 32">
<title>connect</title>
<path d="M12 26v-4h8v4h-8zM4 10h24v-4h-24v4zM24 18v-4h-16v4h16z"></path>
</symbol>
<symbol id="icon-copy" viewBox="0 0 32 32">
<title>copy</title>
<path d="M4 12h16v16h-16v-16zM12 4v4h12v12h4v-16h-16z"></path>
</symbol>
<symbol id="icon-create" viewBox="0 0 32 32">
<title>create</title>
<path d="M22 4l4 4v20h-20v-24h16z"></path>
</symbol>
<symbol id="icon-cry" viewBox="0 0 32 32">
<title>cry</title>
<path d="M27 19l-5 5h-12l-5-5 11-11 11 11z"></path>
</symbol>
<symbol id="icon-cut" viewBox="0 0 32 32">
<title>cut</title>
<path d="M15.172 16l8.485 8.485-2.828 2.828-8.485-8.485-2.828 2.828-2.828-2.828 2.827-2.828-2.828-2.828 2.828-2.828 2.828 2.828 8.485-8.485 2.828 2.828-8.484 8.485z"></path>
</symbol>
<symbol id="icon-dazzle" viewBox="0 0 32 32">
<title>dazzle</title>
<path d="M27 13l-11 11-11-11 5-5h12l5 5z"></path>
</symbol>
<symbol id="icon-decorate" viewBox="0 0 32 32">
<title>decorate</title>
<path d="M8 10l-4-4h8l-4 4zM24 26l4-4h-8l4 4zM20 6h-8l4 4 4-4zM28 6h-8l4 4 4-4zM16 26l4-4h-8l4 4zM8 18l4-4h-8l4 4zM16 18l4-4h-8l4 4zM24 18l4-4h-8l4 4zM8 26l4-4h-8l4 4z"></path>
</symbol>
<symbol id="icon-defend" viewBox="0 0 32 32">
<title>defend</title>
<path d="M24 4v16l-8 8-8-8v-16h16z"></path>
</symbol>
<symbol id="icon-develop" viewBox="0 0 32 32">
<title>develop</title>
<path d="M30 16l-8.485 8.485-2.828-2.828 5.656-5.657-5.657-5.657 2.828-2.828 8.486 8.485zM2 16l8.485-8.485 2.828 2.828-5.656 5.657 5.657 5.657-2.828 2.828-8.486-8.485z"></path>
</symbol>
<symbol id="icon-die" viewBox="0 0 32 32">
<title>die</title>
<path d="M26 8v4h-8v16h-4v-16h-8v-4h8v-4h4v4h8z"></path>
</symbol>
<symbol id="icon-dig" viewBox="0 0 32 32">
<title>dig</title>
<path d="M11.7 20.2l2.8-2.8-10.5-10.6 2.8-2.8 10.6 10.6 2.8-2.8 7.8 7.8v8.5h-8.4l-7.9-7.9z"></path>
</symbol>
<symbol id="icon-divide" viewBox="0 0 32 32">
<title>divide</title>
<path d="M23 11.686l-11.314 11.314-2.828-2.828 11.314-11.314 2.828 2.828z"></path>
</symbol>
<symbol id="icon-download" viewBox="0 0 32 32">
<title>download</title>
<path d="M16.001 19.314l-8.485-8.485 2.828-2.829 5.657 5.657 5.657-5.657 2.828 2.828-8.485 8.486zM8 28h16v-4h-16v4z"></path>
</symbol>
<symbol id="icon-enter" viewBox="0 0 32 32">
<title>enter</title>
<path d="M23 4v8h-4v16h-8v-4h4v-4h-4v-4h4v-4h-4v-8h12z"></path>
</symbol>
<symbol id="icon-equal" viewBox="0 0 32 32">
<title>equal</title>
<path d="M8 18h16v4h-16v-4zM8 10v4h16v-4h-16z"></path>
</symbol>
<symbol id="icon-explore" viewBox="0 0 32 32">
<title>explore</title>
<path d="M29 24v4h-12v-4h2v-6h-6v6h2v4h-12v-4h2v-16h2v-4h4v4h2v2h6v-2h2v-4h4v4h2v16h2z"></path>
</symbol>
<symbol id="icon-fight" viewBox="0 0 32 32">
<title>fight</title>
<path d="M14.586 20.243l2.828 2.828-2.828 2.828-2.828-2.828-2.828 2.828-2.828-2.828 2.828-2.828-2.828-2.828 2.828-2.828 2.828 2.828 11.313-11.315 2.828 2.828-11.313 11.315z"></path>
</symbol>
<symbol id="icon-forbid" viewBox="0 0 32 32">
<title>forbid</title>
<path d="M18.828 16l4.243 4.243-2.828 2.828-4.243-4.243-4.243 4.243-2.828-2.828 4.243-4.243-4.243-4.243 2.828-2.828 4.243 4.243 4.243-4.243 2.828 2.828-4.243 4.243z"></path>
</symbol>
<symbol id="icon-forward" viewBox="0 0 32 32">
<title>forward</title>
<path d="M22.314 16l-8.485 8.485-2.829-2.828 5.657-5.657-5.657-5.657 2.828-2.828 8.486 8.485z"></path>
</symbol>
<symbol id="icon-game" viewBox="0 0 32 32">
<title>game</title>
<path d="M28 12v12h-5l-4-4h-6l-4 4h-5v-12l4-4h3l2 2h7l2-2h2l4 4z"></path>
</symbol>
<symbol id="icon-go" viewBox="0 0 32 32">
<title>go</title>
<path d="M27.728 16.024l-8.485 8.482-2.828-2.835 3.656-3.671h-14.071v-4h14.071l-3.657-3.644 2.828-2.816 8.486 8.484z"></path>
</symbol>
<symbol id="icon-hang" viewBox="0 0 32 32">
<title>hang</title>
<path d="M10 5v22l6-6 6 6v-22h-12zM18 13h-4v-4h4v4z"></path>
</symbol>
<symbol id="icon-keep" viewBox="0 0 32 32">
<title>keep</title>
<path d="M22 12v-8h-12v8.060l-4-0.005v15.945h20v-16h-4zM18 12h-4v-4h4v4z"></path>
</symbol>
<symbol id="icon-kill" viewBox="0 0 32 32">
<title>kill</title>
<path d="M27 8v4h-4v8h-4v-4h-4v12h-6v-12h-4v-8h22z"></path>
</symbol>
<symbol id="icon-label" viewBox="0 0 32 32">
<title>label</title>
<path d="M29 3h-11.3l-14.9 14.8 11.3 11.3 14.9-14.8v-11.3zM20 12v-4h4v4h-4z"></path>
</symbol>
<symbol id="icon-load" viewBox="0 0 32 32">
<title>load</title>
<path d="M24.48 19.243l-8.485 8.485-8.485-8.485 2.83-2.828 3.66 3.656v-14.071h4v14.071l3.654-3.657 2.826 2.829z"></path>
</symbol>
<symbol id="icon-locate" viewBox="0 0 32 32">
<title>locate</title>
<path d="M27.314 16l-11.314 11.314-11.314-11.314 11.314-11.314 11.314 11.314z"></path>
</symbol>
<symbol id="icon-love" viewBox="0 0 32 32">
<title>love</title>
<path d="M28 13l-12 12-12-12 6-6 6 6.173 6-6.173 6 6z"></path>
</symbol>
<symbol id="icon-pause" viewBox="0 0 32 32">
<title>pause</title>
<path d="M10 8h4v16h-4v-16zM18 8v16h4v-16h-4z"></path>
</symbol>
<symbol id="icon-pin" viewBox="0 0 32 32">
<title>pin</title>
<path d="M24 13v7h-6v8h-4v-8h-6v-7h4v-5h-2v-4h12v4h-2v5h4z"></path>
</symbol>
<symbol id="icon-point" viewBox="0 0 32 32">
<title>point</title>
<path d="M16 4.686l-11.314 11.314 11.314 11.314 11.314-11.314-11.314-11.314zM10.343 16l5.657-5.657 5.657 5.657-5.657 5.657-5.657-5.657z"></path>
</symbol>
<symbol id="icon-power" viewBox="0 0 32 32">
<title>power</title>
<path d="M26 23h-6v5h-8v-5h-6v-12h4v-8h4v8h4v-8h4v8h4v12z"></path>
</symbol>
<symbol id="icon-protect" viewBox="0 0 32 32">
<title>protect</title>
<path d="M28 15l-2.5 2.5-2.5-2.5-2.5 2.5-2.5-2.5v14h-4v-14l-2.5 2.5-2.5-2.5-2.5 2.5-2.5-2.5 12-12 12 12z"></path>
</symbol>
<symbol id="icon-rain" viewBox="0 0 32 32">
<title>rain</title>
<path d="M14 14h4v4h-4v-4zM6 26h4v-4h-4v4zM22 18h4v-4h-4v4zM14 26h4v-4h-4v4zM6 10h4v-4h-4v4zM14 10h4v-4h-4v4zM22 6v4h4v-4h-4zM22 26h4v-4h-4v4zM6 18h4v-4h-4v4z"></path>
</symbol>
<symbol id="icon-record" viewBox="0 0 32 32">
<title>record</title>
<path d="M24 8v16h-16v-16h16z"></path>
</symbol>
<symbol id="icon-redo" viewBox="0 0 32 32">
<title>redo</title>
<path d="M28 24v4h-24v-20h10.071l-3.657-3.654 2.828-2.826 8.485 8.485-8.485 8.484-2.828-2.83 3.657-3.659h-6.071v12h20z"></path>
</symbol>
<symbol id="icon-reply" viewBox="0 0 32 32">
<title>reply</title>
<path d="M26 18h-14.066l3.657 3.653-2.828 2.825-8.485-8.485 8.485-8.484 2.828 2.83-3.657 3.661h14.066v4z"></path>
</symbol>
<symbol id="icon-rewind" viewBox="0 0 32 32">
<title>rewind</title>
<path d="M15.343 16l5.657 5.657-2.828 2.828-8.486-8.485 8.485-8.485 2.829 2.828-5.657 5.657z"></path>
</symbol>
<symbol id="icon-save" viewBox="0 0 32 32">
<title>save</title>
<path d="M30.48 13.243l-8.485 8.485-8.484-8.485 2.83-2.828 3.659 3.656v-6.071h-12v20h-4v-24h20v10.071l3.654-3.657 2.826 2.829z"></path>
</symbol>
<symbol id="icon-saw" viewBox="0 0 32 32">
<title>saw</title>
<path d="M14 10l2.5 2.5-15.5 15.5 2 2h4v-4h4v-4h4v-4h4v-3l3 3 8-8-8-8-8 8zM22 13l-3-3 3-3 3 3-3 3z"></path>
</symbol>
<symbol id="icon-stack" viewBox="0 0 32 32">
<title>stack</title>
<path d="M6 14h20v4h-20v-4zM6 26h20v-4h-20v4zM6 6v4h20v-4h-20z"></path>
</symbol>
<symbol id="icon-store" viewBox="0 0 32 32">
<title>store</title>
<path d="M16 5l-12 12v11h24v-11l-12-12zM24 24h-16v-4h16v4z"></path>
</symbol>
<symbol id="icon-subtract" viewBox="0 0 32 32">
<title>subtract</title>
<path d="M24 14v4h-16v-4h16z"></path>
</symbol>
<symbol id="icon-swim" viewBox="0 0 32 32">
<title>swim</title>
<path d="M18 5l-6 6-4-4-5 5 4 4-4 4 5 5 4-4 6 6 11-11-11-11zM17 16l3-3 3 3-3 3-3-3z"></path>
</symbol>
<symbol id="icon-time" viewBox="0 0 32 32">
<title>time</title>
<path d="M22 18h-8v-8h4v4h4v4zM30 2v28h-28v-28h28zM26 6h-20v20h20v-20z"></path>
</symbol>
<symbol id="icon-undo" viewBox="0 0 32 32">
<title>undo</title>
<path d="M28 8v20h-24v-4h20v-12h-6.071l3.657 3.66-2.828 2.83-8.485-8.484 8.485-8.485 2.828 2.826-3.657 3.653h10.071z"></path>
</symbol>
<symbol id="icon-upload" viewBox="0 0 32 32">
<title>upload</title>
<path d="M24 12h-16v-4h16v4zM16.001 16.52l-8.485 8.485 2.828 2.828 5.657-5.657 5.657 5.657 2.828-2.828-8.485-8.485z"></path>
</symbol>
<symbol id="icon-urbanize" viewBox="0 0 32 32">
<title>urbanize</title>
<path d="M14 4v4h-8v20h20v-24h-12zM14 24h-4v-4h4v4zM14 16h-4v-4h4v4zM22 20h-4v-4h4v4zM22 12h-4v-4h4v4z"></path>
</symbol>
<symbol id="icon-facebook2" viewBox="0 0 32 32">
<title>facebook2</title>
<path d="M29 0h-26c-1.65 0-3 1.35-3 3v26c0 1.65 1.35 3 3 3h13v-14h-4v-4h4v-2c0-3.306 2.694-6 6-6h4v4h-4c-1.1 0-2 0.9-2 2v2h6l-1 4h-5v14h9c1.65 0 3-1.35 3-3v-26c0-1.65-1.35-3-3-3z"></path>
</symbol>
<symbol id="icon-github" viewBox="0 0 32 32">
<title>github</title>
<path d="M16 0.395c-8.836 0-16 7.163-16 16 0 7.069 4.585 13.067 10.942 15.182 0.8 0.148 1.094-0.347 1.094-0.77 0-0.381-0.015-1.642-0.022-2.979-4.452 0.968-5.391-1.888-5.391-1.888-0.728-1.849-1.776-2.341-1.776-2.341-1.452-0.993 0.11-0.973 0.11-0.973 1.606 0.113 2.452 1.649 2.452 1.649 1.427 2.446 3.743 1.739 4.656 1.33 0.143-1.034 0.558-1.74 1.016-2.14-3.554-0.404-7.29-1.777-7.29-7.907 0-1.747 0.625-3.174 1.649-4.295-0.166-0.403-0.714-2.030 0.155-4.234 0 0 1.344-0.43 4.401 1.64 1.276-0.355 2.645-0.532 4.005-0.539 1.359 0.006 2.729 0.184 4.008 0.539 3.054-2.070 4.395-1.64 4.395-1.64 0.871 2.204 0.323 3.831 0.157 4.234 1.026 1.12 1.647 2.548 1.647 4.295 0 6.145-3.743 7.498-7.306 7.895 0.574 0.497 1.085 1.47 1.085 2.963 0 2.141-0.019 3.864-0.019 4.391 0 0.426 0.288 0.925 1.099 0.768 6.354-2.118 10.933-8.113 10.933-15.18 0-8.837-7.164-16-16-16z"></path>
</symbol>
<symbol id="icon-linkedin1" viewBox="0 0 32 32">
<title>linkedin1</title>
<path d="M29 0h-26c-1.65 0-3 1.35-3 3v26c0 1.65 1.35 3 3 3h26c1.65 0 3-1.35 3-3v-26c0-1.65-1.35-3-3-3zM12 26h-4v-14h4v14zM10 10c-1.106 0-2-0.894-2-2s0.894-2 2-2c1.106 0 2 0.894 2 2s-0.894 2-2 2zM26 26h-4v-8c0-1.106-0.894-2-2-2s-2 0.894-2 2v8h-4v-14h4v2.481c0.825-1.131 2.087-2.481 3.5-2.481 2.488 0 4.5 2.238 4.5 5v9z"></path>
</symbol>
</defs>
</svg>
